<svg width="19" height="15" viewBox="0 0 19 15" fill="none" xmlns="http://www.w3.org/2000/svg">
<path d="M19 0.9375V4.6875L9.5 8.4375L0 4.6875V0.9375C0 0.68886 0.100089 0.450403 0.278249 0.274588C0.456408 0.0987722 0.698044 0 0.95 0H18.05C18.302 0 18.5436 0.0987722 18.7218 0.274588C18.8999 0.450403 19 0.68886 19 0.9375ZM0 6.70688V14.0625C0 14.3111 0.100089 14.5496 0.278249 14.7254C0.456408 14.9012 0.698044 15 0.95 15H18.05C18.302 15 18.5436 14.9012 18.7218 14.7254C18.8999 14.5496 19 14.3111 19 14.0625V6.70688L9.5 10.4569L0 6.70688Z" fill="white"/>
</svg>
