<svg width="40" height="40" viewBox="0 0 40 40" fill="none" xmlns="http://www.w3.org/2000/svg">
<circle cx="20" cy="20" r="20" transform="rotate(-90 20 20)" fill="white"/>
<path fill-rule="evenodd" clip-rule="evenodd" d="M13.8114 9.34912C12.6278 9.34912 11.4926 9.8192 10.6555 10.656C9.8184 11.4928 9.34788 12.6278 9.34743 13.8114V25.7154C9.34743 26.8993 9.81774 28.0348 10.6549 28.8719C11.4921 29.7091 12.6275 30.1794 13.8114 30.1794H25.7154C26.8991 30.179 28.0341 29.7084 28.8708 28.8713C29.7076 28.0342 30.1777 26.899 30.1777 25.7154V13.8114C30.1773 12.6281 29.707 11.4933 28.8702 10.6566C28.0335 9.81985 26.8988 9.34958 25.7154 9.34912H13.8114ZM26.9994 13.8183C26.9994 14.1593 26.864 14.4863 26.6229 14.7274C26.3817 14.9685 26.0547 15.104 25.7137 15.104C25.3727 15.104 25.0457 14.9685 24.8046 14.7274C24.5635 14.4863 24.428 14.1593 24.428 13.8183C24.428 13.4773 24.5635 13.1502 24.8046 12.9091C25.0457 12.668 25.3727 12.5325 25.7137 12.5325C26.0547 12.5325 26.3817 12.668 26.6229 12.9091C26.864 13.1502 26.9994 13.4773 26.9994 13.8183ZM19.7651 16.1977C18.8195 16.1977 17.9125 16.5734 17.2438 17.2421C16.5751 17.9108 16.1994 18.8177 16.1994 19.7634C16.1994 20.7091 16.5751 21.616 17.2438 22.2847C17.9125 22.9534 18.8195 23.3291 19.7651 23.3291C20.7108 23.3291 21.6178 22.9534 22.2865 22.2847C22.9552 21.616 23.3309 20.7091 23.3309 19.7634C23.3309 18.8177 22.9552 17.9108 22.2865 17.2421C21.6178 16.5734 20.7108 16.1977 19.7651 16.1977ZM14.4834 19.7634C14.4834 18.3631 15.0397 17.0201 16.0299 16.0299C17.0201 15.0397 18.3631 14.4834 19.7634 14.4834C21.1638 14.4834 22.5068 15.0397 23.497 16.0299C24.4871 17.0201 25.0434 18.3631 25.0434 19.7634C25.0434 21.1637 24.4871 22.5067 23.497 23.4969C22.5068 24.4871 21.1638 25.0434 19.7634 25.0434C18.3631 25.0434 17.0201 24.4871 16.0299 23.4969C15.0397 22.5067 14.4834 21.1637 14.4834 19.7634Z" fill="#B8824F"/>
</svg>
