<svg width="40" height="40" viewBox="0 0 40 40" fill="none" xmlns="http://www.w3.org/2000/svg">
<circle cx="20" cy="20" r="20" transform="rotate(-90 20 20)" fill="white"/>
<path fill-rule="evenodd" clip-rule="evenodd" d="M12.5 9.5C11.7044 9.5 10.9413 9.81607 10.3787 10.3787C9.81607 10.9413 9.5 11.7044 9.5 12.5V27.5C9.5 28.2956 9.81607 29.0587 10.3787 29.6213C10.9413 30.1839 11.7044 30.5 12.5 30.5H27.5C28.2956 30.5 29.0587 30.1839 29.6213 29.6213C30.1839 29.0587 30.5 28.2956 30.5 27.5V12.5C30.5 11.7044 30.1839 10.9413 29.6213 10.3787C29.0587 9.81607 28.2956 9.5 27.5 9.5H12.5ZM14.153 15.9455C14.6284 15.9455 15.0843 15.7566 15.4205 15.4205C15.7566 15.0843 15.9455 14.6284 15.9455 14.153C15.9455 13.6776 15.7566 13.2217 15.4205 12.8855C15.0843 12.5494 14.6284 12.3605 14.153 12.3605C13.6776 12.3605 13.2217 12.5494 12.8855 12.8855C12.5494 13.2217 12.3605 13.6776 12.3605 14.153C12.3605 14.6284 12.5494 15.0843 12.8855 15.4205C13.2217 15.7566 13.6776 15.9455 14.153 15.9455ZM15.653 27.2195V17.351H12.653V27.2195H15.653ZM17.645 17.351H20.645V18.6725C21.0875 17.9795 22.0595 17.0465 23.867 17.0465C26.024 17.0465 27.1955 18.476 27.1955 21.1955C27.1955 21.326 27.2075 21.9215 27.2075 21.9215V27.218H24.2075V21.923C24.2075 21.1955 24.0545 19.766 22.4375 19.766C20.819 19.766 20.6825 21.563 20.645 22.739V27.218H17.645V17.351Z" fill="#B8824F"/>
</svg>
