<svg width="160" height="58" viewBox="0 0 160 58" fill="none" xmlns="http://www.w3.org/2000/svg">
<path d="M30.8909 24.7244C30.8868 24.8261 30.8671 24.9266 30.8324 25.0222C30.7675 25.0222 30.6636 25.0222 30.5272 25.0222L30.0824 25.0418L29.6376 25.0614H29.3129C28.9852 25.0708 28.6577 25.0367 28.3388 24.96C28.0922 24.8864 27.8685 24.75 27.6894 24.564C27.4868 24.3489 27.296 24.1228 27.118 23.8866C26.8647 23.5593 26.5855 23.1961 26.277 22.7706L25.303 21.4289C24.9621 20.9576 24.6536 20.506 24.3289 20.074C24.0042 19.642 23.7704 19.2559 23.5399 18.909C23.3094 18.5621 23.1438 18.3265 23.0529 18.1759C23.0598 18.0568 23.0862 17.9396 23.1308 17.829C23.1755 17.7363 23.236 17.6521 23.3094 17.5803C23.7669 17.5212 24.2166 17.4114 24.6504 17.2531C25.0427 17.1097 25.4099 16.9042 25.7381 16.6444C26.0373 16.4029 26.2829 16.1007 26.4589 15.7575C26.6411 15.3947 26.7325 14.9925 26.7251 14.5859C26.7384 14.1588 26.6575 13.7341 26.4881 13.3423C26.3415 13.02 26.1185 12.739 25.8387 12.5242C25.5584 12.3137 25.2395 12.1613 24.9004 12.0758C24.5331 11.9827 24.1557 11.9365 23.7769 11.9384H23.3808L22.9457 11.958C22.8029 11.958 22.6633 11.9744 22.5334 11.9875C22.4035 12.0006 22.2964 12.0137 22.2087 12.0267L22.1697 12.9038C22.1697 13.1689 22.147 13.4765 22.1405 13.8299C22.134 14.1834 22.1405 14.5499 22.1405 14.9328L22.1015 20.4962C22.1015 20.5878 22.1015 20.806 22.1015 21.1507C22.1015 21.478 22.1015 21.8641 22.1015 22.2536C22.1015 22.643 22.121 23.003 22.1405 23.3303C22.1301 23.5249 22.1669 23.7192 22.2477 23.8964C22.4587 24.1091 22.9198 24.2728 23.6308 24.3938C23.6524 24.4918 23.6655 24.5914 23.6698 24.6916C23.6726 24.7385 23.6726 24.7855 23.6698 24.8324C23.6698 24.8847 23.6601 24.9436 23.6406 25.0091H23.0886C22.8386 25.0091 22.5431 25.0091 22.199 24.9895C21.8548 24.9698 21.5496 24.9698 21.2249 24.9698C20.9002 24.9698 20.608 24.9698 20.2768 24.9895C19.9456 25.0091 19.6599 25.0091 19.4099 25.0091H18.8319C18.8189 24.9436 18.8092 24.8847 18.8027 24.8324C18.7999 24.7855 18.7999 24.7385 18.8027 24.6916C18.807 24.5914 18.8201 24.4918 18.8417 24.3938C19.5398 24.2728 19.9878 24.1157 20.1859 23.916C20.2687 23.7393 20.3087 23.5453 20.3028 23.3499C20.332 23.0226 20.3515 22.6659 20.3645 22.2732C20.3775 21.8805 20.3839 21.514 20.3839 21.1703V20.506L20.4424 14.9426V14.3666C20.4424 14.095 20.4424 13.8168 20.4229 13.5289C20.4034 13.2409 20.3937 12.9823 20.3742 12.7434C20.3774 12.5985 20.3463 12.4549 20.2833 12.3246C20.1379 12.1978 19.9658 12.106 19.78 12.0562C19.5495 11.9842 19.2638 11.9155 18.9228 11.8468C18.9008 11.7489 18.8878 11.6492 18.8839 11.5489C18.8811 11.5032 18.8811 11.4573 18.8839 11.4115C18.8839 11.3559 18.8839 11.297 18.9131 11.2315H19.1988C19.3222 11.2315 19.4586 11.2315 19.6047 11.2119H19.8515C19.9449 11.2121 20.0382 11.2055 20.1307 11.1922L21.1762 11.1431L22.3223 11.081L23.4068 11.0319C23.751 11.0319 24.0562 11.0122 24.2964 11.0122C24.7951 11.0131 25.2931 11.0492 25.7868 11.1202C26.2757 11.1885 26.7479 11.3471 27.1797 11.5882C27.6059 11.8322 27.9626 12.1827 28.2154 12.606C28.5102 13.14 28.6508 13.7465 28.6213 14.3568C28.6319 14.8008 28.5507 15.2422 28.383 15.6529C28.2153 16.0636 27.9648 16.4346 27.6472 16.7425C26.9208 17.42 26.0068 17.8584 25.027 17.9992C25.1309 18.1694 25.2965 18.4181 25.5205 18.7454C25.7446 19.0726 25.9978 19.4293 26.2803 19.8188C26.5628 20.2082 26.8582 20.6173 27.1699 21.0427C27.4816 21.4682 27.7739 21.8674 28.0563 22.2372C28.3388 22.607 28.5986 22.9343 28.8291 23.219C28.9898 23.423 29.1645 23.6155 29.3518 23.795C29.5398 23.9648 29.7443 24.115 29.9623 24.2433C30.1356 24.3501 30.3339 24.4088 30.537 24.4135H30.8454C30.8641 24.4586 30.8772 24.5059 30.8844 24.5542C30.8918 24.6106 30.894 24.6676 30.8909 24.7244Z" fill="#243D81"/>
<path d="M23.8321 33.5505C23.828 33.6508 23.8149 33.7504 23.7932 33.8483C23.449 33.9171 23.1633 33.9825 22.9327 34.048C22.7466 34.0915 22.5738 34.1803 22.4295 34.3065C22.3736 34.3993 22.3433 34.5055 22.3418 34.6141C22.3223 34.7821 22.3061 34.9883 22.2931 35.2326C22.2801 35.477 22.2704 35.7453 22.2639 36.0377C22.2639 36.3322 22.2639 36.6169 22.2639 36.8951L22.2217 42.4585V43.4239C22.2217 43.8003 22.2217 44.1668 22.2217 44.517C22.2217 44.8671 22.2444 45.1715 22.2736 45.4529C22.2711 45.6228 22.3113 45.7906 22.3905 45.9405C22.5363 46.0743 22.7125 46.1698 22.9035 46.2187C23.1276 46.2842 23.3971 46.3529 23.7152 46.4183C23.737 46.5162 23.7501 46.6159 23.7542 46.7161C23.7569 46.763 23.7569 46.81 23.7542 46.8569C23.7542 46.9092 23.7445 46.9681 23.725 47.0336H23.16C22.9111 47.0336 22.6189 47.027 22.2834 47.0139C21.9587 47.0139 21.634 46.9943 21.3255 46.9943C21.0171 46.9943 20.7054 46.9943 20.3775 47.0139C20.0495 47.0336 19.7573 47.0336 19.5073 47.0336H18.9553C18.9423 46.9681 18.9326 46.9092 18.9261 46.8569C18.9234 46.81 18.9234 46.763 18.9261 46.7161C18.9302 46.6159 18.9433 46.5162 18.9651 46.4183C19.2544 46.3645 19.5406 46.2946 19.8222 46.2089C20.0092 46.1597 20.1825 46.0679 20.3287 45.9405C20.3916 45.7998 20.4216 45.6464 20.4164 45.4922C20.4359 45.2337 20.4554 44.926 20.4749 44.566C20.4943 44.2061 20.5073 43.8363 20.5138 43.4534C20.5203 43.0705 20.5138 42.7367 20.5138 42.4716L20.5528 36.9082C20.5528 36.6169 20.5528 36.3224 20.5528 36.0311C20.5528 35.7399 20.5365 35.4748 20.5236 35.2359C20.5144 35.0354 20.4949 34.8355 20.4651 34.637C20.458 34.5311 20.4245 34.4287 20.3677 34.3392C20.2223 34.2071 20.0456 34.1147 19.8547 34.0709C19.6307 34.012 19.3579 33.9498 19.043 33.8811C19.0212 33.7832 19.0082 33.6835 19.004 33.5833C19.0012 33.5375 19.0012 33.4916 19.004 33.4458C19.004 33.3902 19.004 33.3313 19.0332 33.2658H19.5852C19.8352 33.2658 20.1307 33.2658 20.4651 33.2855C20.7995 33.3051 21.1145 33.3051 21.4392 33.3051C21.7639 33.3051 22.0593 33.3051 22.3873 33.2855C22.7152 33.2658 23.0074 33.2658 23.2574 33.2658H23.8094C23.8094 33.3313 23.8321 33.3902 23.8386 33.4458C23.8381 33.4808 23.8359 33.5157 23.8321 33.5505ZM30.7837 46.7063C30.7864 46.7532 30.7864 46.8002 30.7837 46.847C30.7837 46.8994 30.774 46.9583 30.7545 47.0238H30.4298L29.9947 47.0434L29.5207 47.0663H29.0888C28.7711 47.0748 28.4541 47.0305 28.1505 46.9354C27.9495 46.8744 27.7643 46.7693 27.6083 46.6278C27.4632 46.4816 27.2468 46.2329 26.9589 45.8816C26.6764 45.5282 26.3615 45.1289 26.0205 44.6773C25.6796 44.2257 25.3225 43.7512 24.9556 43.2537C24.5887 42.7563 24.2445 42.2883 23.9263 41.8498L23.1081 40.7077C22.8776 40.3804 22.7217 40.1579 22.6438 40.0532L26.1796 35.9722C26.4686 35.645 26.7219 35.3177 26.9394 35.0461C27.0993 34.8771 27.2114 34.6681 27.2641 34.4407C27.2639 34.3486 27.2353 34.2589 27.1824 34.1839C27.1295 34.1089 27.0548 34.0522 26.9686 34.0218C26.7559 33.9251 26.5288 33.8643 26.2965 33.8418C26.2715 33.7445 26.2584 33.6445 26.2576 33.544C26.2568 33.4337 26.2699 33.3237 26.2965 33.2167H26.9881H27.3323C27.4838 33.2167 27.6494 33.2167 27.8291 33.2167H28.3713H28.8648C29.1289 33.2167 29.3821 33.2102 29.6246 33.1971C29.8681 33.1971 30.0629 33.1775 30.2058 33.1775H30.6603C30.6773 33.2153 30.6903 33.2548 30.6993 33.2953C30.7139 33.3542 30.7215 33.4146 30.722 33.4753C30.7213 33.5392 30.7136 33.6028 30.6993 33.6651C30.6911 33.7089 30.678 33.7518 30.6603 33.7927C30.3973 33.8483 30.1798 33.8974 30.011 33.9432C29.8156 34.0014 29.6312 34.0921 29.4655 34.2116C29.2234 34.3909 28.9964 34.5902 28.7869 34.8072C28.5206 35.0756 28.1667 35.4617 27.7187 35.9232L24.4231 39.5983C24.5042 39.703 24.6471 39.9026 24.8582 40.1939C25.0692 40.4851 25.3225 40.8484 25.6179 41.2313C25.9134 41.6142 26.2348 42.056 26.5758 42.5141C26.9167 42.9723 27.2576 43.4174 27.5953 43.8461C27.933 44.2748 28.2447 44.674 28.5434 45.0308C28.8421 45.3875 29.0856 45.6689 29.2837 45.8685C29.4472 46.0318 29.6371 46.1657 29.8454 46.2645C30.0636 46.3721 30.3037 46.427 30.5467 46.4249H30.7448C30.7656 46.5174 30.7786 46.6116 30.7837 46.7063Z" fill="#243D81"/>
<path d="M32.2675 28.9002H17.4325V29.4173H32.2675V28.9002Z" fill="#243D81"/>
<path d="M24.9166 58L0 43.4992V14.5008L24.9166 0L49.8364 14.5008V43.4992L24.9166 58ZM2.21762 42.2163L24.9166 55.4245L47.6188 42.2163V15.7902L24.9166 2.5788L2.21762 15.7902V42.2163Z" fill="#B8824F"/>
<path d="M67.4021 27.2541C67.4055 27.3086 67.4055 27.3632 67.4021 27.4177C67.3944 27.4656 67.3825 27.5127 67.3664 27.5584L66.717 27.5748H65.9702C65.75 27.5845 65.5299 27.5535 65.3208 27.4832C65.1417 27.409 64.9801 27.2975 64.8468 27.1559C64.7846 27.0953 64.73 27.0271 64.6844 26.953C64.6098 26.8385 64.5221 26.6977 64.4214 26.5276L64.0968 25.9712C63.9755 25.7683 63.8554 25.5622 63.7364 25.3527C63.4571 24.8618 63.1454 24.3153 62.8013 23.7164C62.8021 23.6151 62.8263 23.5153 62.872 23.425C62.9176 23.3347 62.9834 23.2564 63.0642 23.1961C63.2979 23.1429 63.5254 23.0651 63.7428 22.9637C63.9427 22.8769 64.127 22.7574 64.2883 22.6103C64.4301 22.463 64.5406 22.2882 64.613 22.0965C64.7018 21.8695 64.7448 21.627 64.7396 21.3831C64.7531 21.187 64.7247 20.9904 64.6564 20.8063C64.588 20.6223 64.4813 20.4552 64.3435 20.3162C64.2056 20.1773 64.0398 20.0698 63.8572 20.0009C63.6746 19.932 63.4795 19.9034 63.285 19.9169C63.2363 19.9169 63.1649 19.9169 63.0642 19.9169H62.7558C62.6519 19.9169 62.5545 19.9169 62.4571 19.9366H62.2525C62.2525 20.0904 62.2525 20.2638 62.2525 20.4078C62.2525 20.5518 62.2525 20.6991 62.2525 20.8693V21.3536L62.2168 25.0942C62.2168 25.248 62.2168 25.4018 62.2168 25.5589C62.2168 25.716 62.2168 25.8665 62.2428 26.0072C62.2514 26.1389 62.2731 26.2694 62.3077 26.3967C62.3304 26.4953 62.3812 26.5852 62.4538 26.6552C62.5147 26.719 62.5822 26.776 62.6551 26.8254C62.7664 26.8851 62.8896 26.9187 63.0155 26.9235C63.0336 26.9675 63.0456 27.0138 63.0513 27.061C63.0686 27.1694 63.0686 27.2799 63.0513 27.3883C63.0452 27.4365 63.0332 27.4837 63.0155 27.529H62.6909C62.4766 27.529 62.2363 27.529 61.9765 27.529C61.7168 27.529 61.5057 27.529 61.3466 27.529C61.1875 27.529 60.9635 27.529 60.7265 27.529C60.4895 27.529 60.2719 27.529 60.0771 27.529H59.5966C59.579 27.4837 59.567 27.4365 59.5609 27.3883C59.5435 27.2799 59.5435 27.1694 59.5609 27.061C59.5666 27.0138 59.5786 26.9675 59.5966 26.9235C59.8519 26.9173 60.0973 26.8225 60.2914 26.6552C60.3568 26.5808 60.4046 26.4924 60.431 26.3967C60.4678 26.2696 60.4917 26.1391 60.5025 26.0072C60.5025 25.8665 60.5219 25.716 60.5252 25.5589C60.5284 25.4018 60.5252 25.2316 60.5252 25.0942L60.5512 21.3896C60.5512 21.082 60.5512 20.794 60.5512 20.5289C60.5617 20.3174 60.4934 20.1096 60.3596 19.9464C60.2835 19.8757 60.1956 19.8192 60.0998 19.7795C59.9685 19.7247 59.8293 19.6916 59.6875 19.6813C59.6698 19.6359 59.6568 19.5887 59.6485 19.5406C59.6451 19.4861 59.6451 19.4315 59.6485 19.377C59.6453 19.2735 59.6652 19.1705 59.707 19.0759H60.3563L61.233 19.053L62.2493 19.0268L63.2233 19.0039H63.9279C64.2709 19.0015 64.6129 19.0389 64.9474 19.1152C65.2507 19.1793 65.5386 19.3027 65.7949 19.4784C66.0393 19.6449 66.2389 19.8697 66.3761 20.1329C66.53 20.4445 66.6048 20.7897 66.5936 21.1376C66.5952 21.4152 66.5445 21.6906 66.4443 21.9492C66.3453 22.1964 66.2047 22.4245 66.0287 22.6234C65.8491 22.8231 65.6385 22.9922 65.4053 23.1241C65.1641 23.2667 64.9054 23.3767 64.6357 23.4513C64.9604 24.0077 65.2624 24.5149 65.5351 24.9665L65.8436 25.5262L66.1683 26.053C66.2689 26.2167 66.3566 26.3541 66.4345 26.4654C66.4824 26.5456 66.5402 26.6192 66.6066 26.6846C66.6786 26.7637 66.7658 26.8271 66.863 26.871C66.9601 26.9149 67.0651 26.9383 67.1716 26.9399H67.3534C67.3699 26.9844 67.3819 27.0304 67.3891 27.0774C67.3974 27.1359 67.4017 27.1949 67.4021 27.2541Z" fill="#233E81"/>
<path d="M76.5323 23.1143C76.5375 23.7414 76.4148 24.3629 76.1719 24.9404C75.9439 25.4896 75.6132 25.9896 75.1979 26.413C74.7801 26.8345 74.2834 27.1682 73.7368 27.3948C73.1649 27.6304 72.5525 27.7494 71.9347 27.745C71.3785 27.7547 70.8261 27.65 70.3113 27.4373C69.8501 27.2413 69.436 26.9478 69.097 26.5767C68.758 26.1975 68.5005 25.7518 68.3404 25.2676C68.1638 24.7227 68.0772 24.1522 68.0839 23.579C68.0755 22.9331 68.1959 22.2921 68.4379 21.694C68.6586 21.1456 68.9881 20.6485 69.4063 20.2332C69.8245 19.8179 70.3225 19.4931 70.8698 19.2788C71.4442 19.0546 72.0559 18.9435 72.6718 18.9515C73.2276 18.9433 73.7795 19.0468 74.2952 19.2559C74.758 19.446 75.1729 19.7378 75.5096 20.11C75.8469 20.4904 76.1042 20.9357 76.2661 21.4191C76.4465 21.9656 76.5364 22.5383 76.5323 23.1143ZM74.7401 23.2452C74.7415 22.8284 74.6869 22.4134 74.5777 22.0114C74.4774 21.6314 74.315 21.2708 74.0972 20.9445C73.8901 20.6282 73.6149 20.3631 73.2919 20.1689C72.9488 19.9659 72.5566 19.8628 72.1588 19.8711C71.9226 19.8757 71.688 19.9109 71.4607 19.9759C71.2542 20.0242 71.0561 20.1037 70.873 20.2115C70.5633 20.5955 70.3197 21.0291 70.1522 21.4943C69.9399 22.1261 69.842 22.7912 69.8632 23.4579C69.8622 23.8785 69.9146 24.2975 70.0191 24.7047C70.1157 25.0891 70.2783 25.4535 70.4996 25.7814C70.7145 26.0778 70.9889 26.3253 71.3049 26.5079C71.6474 26.7088 72.0386 26.8096 72.4348 26.7992C72.6719 26.7956 72.9076 26.7615 73.1361 26.6977C73.3448 26.6498 73.5451 26.5704 73.7303 26.4621C73.881 26.2847 74.0158 26.0942 74.1329 25.8927C74.2662 25.6708 74.3751 25.4348 74.4576 25.1891C74.5533 24.9058 74.624 24.6145 74.6686 24.3186C74.721 23.96 74.7449 23.5978 74.7401 23.2353V23.2452Z" fill="#233E81"/>
<path d="M86.286 23.1143C86.2911 23.7414 86.1684 24.3629 85.9256 24.9404C85.6975 25.4897 85.3669 25.9896 84.9515 26.413C84.5343 26.8337 84.0389 27.1673 83.4936 27.3948C82.9216 27.6297 82.3093 27.7487 81.6916 27.745C81.1354 27.7546 80.583 27.6499 80.0682 27.4373C79.608 27.2412 79.1949 26.9477 78.8571 26.5767C78.5171 26.1983 78.2594 25.7524 78.1006 25.2676C77.9228 24.7229 77.8351 24.1524 77.8408 23.579C77.834 22.9332 77.9543 22.2925 78.1947 21.694C78.4155 21.1451 78.7454 20.6477 79.1643 20.2323C79.5831 19.8169 80.0819 19.4924 80.6299 19.2788C81.2041 19.0541 81.816 18.943 82.4319 18.9515C82.9877 18.9436 83.5396 19.047 84.0554 19.2559C84.5172 19.446 84.931 19.7378 85.2664 20.11C85.6048 20.4902 85.8632 20.9355 86.0262 21.4191C86.2043 21.966 86.2921 22.5387 86.286 23.1143ZM84.4969 23.2452C84.4967 22.8285 84.4422 22.4137 84.3346 22.0114C84.2315 21.6324 84.0693 21.2722 83.854 20.9445C83.6462 20.6289 83.3711 20.364 83.0488 20.1689C82.7044 19.9662 82.3112 19.8632 81.9124 19.8711C81.6773 19.8755 81.4437 19.9107 81.2176 19.9759C81.0101 20.0243 80.8109 20.1037 80.6266 20.2115C80.3169 20.5955 80.0733 21.0291 79.9058 21.4943C79.6935 22.1261 79.5956 22.7912 79.6169 23.4579C79.6153 23.8787 79.6688 24.298 79.776 24.7047C79.8712 25.0896 80.0339 25.4543 80.2565 25.7814C80.4705 26.0775 80.7437 26.325 81.0585 26.5079C81.401 26.7088 81.7922 26.8096 82.1884 26.7992C82.4266 26.7954 82.6633 26.7613 82.893 26.6977C83.1017 26.6498 83.302 26.5704 83.4871 26.4621C83.6368 26.2839 83.7715 26.0934 83.8898 25.8927C84.0218 25.6701 84.1306 25.4343 84.2144 25.1891C84.3087 24.9053 84.3793 24.6141 84.4255 24.3186C84.4779 23.96 84.5018 23.5978 84.4969 23.2353V23.2452Z" fill="#233E81"/>
<path d="M93.4713 20.8987C93.4239 20.9153 93.3749 20.9274 93.3252 20.9347C93.269 20.9381 93.2126 20.9381 93.1564 20.9347C93.059 20.9395 92.9617 20.9239 92.8707 20.8889C92.8407 20.7193 92.7837 20.5558 92.7018 20.4046C92.6389 20.2912 92.5455 20.1982 92.4323 20.1362C92.3089 20.0767 92.1758 20.0401 92.0395 20.0282C91.8604 20.0099 91.6805 20.0012 91.5005 20.002H91.3446C91.2927 20.005 91.2407 20.005 91.1888 20.002C91.1283 20.0071 91.0674 20.0071 91.0069 20.002C91.0069 20.1231 91.0069 20.2573 91.0069 20.4013C91.0069 20.5453 91.0069 20.6565 91.0069 20.8071V21.2718L90.9712 25.0745C90.9712 25.2283 90.9712 25.3822 90.9712 25.5425C90.9756 25.6937 90.9886 25.8445 91.0102 25.9941C91.0271 26.1278 91.0531 26.2601 91.0881 26.3901C91.1084 26.489 91.1583 26.5792 91.231 26.6486C91.4259 26.8167 91.6726 26.9115 91.9291 26.917C91.9441 26.9619 91.956 27.0079 91.9648 27.0544C91.9778 27.1631 91.9778 27.273 91.9648 27.3817C91.9556 27.4293 91.9437 27.4763 91.9291 27.5224H91.6044C91.3868 27.5224 91.1758 27.5224 90.955 27.5224C90.7342 27.5224 90.4744 27.5224 90.1368 27.5224C89.7991 27.5224 89.5264 27.5224 89.2958 27.5224C89.0653 27.5224 88.8478 27.5224 88.6465 27.5224H88.3575C88.3414 27.4767 88.3294 27.4296 88.3218 27.3817C88.3088 27.273 88.3088 27.1631 88.3218 27.0544C88.329 27.0075 88.341 26.9615 88.3575 26.917C88.6139 26.9115 88.8606 26.8167 89.0556 26.6486C89.1947 26.472 89.2692 26.2524 89.2666 26.0269C89.2861 25.7323 89.2958 25.4182 89.2958 25.0876L89.3186 21.2718C89.3186 21.1114 89.3186 20.9445 89.3186 20.8071C89.3186 20.6696 89.3186 20.5224 89.3186 20.4013C89.3186 20.2802 89.3186 20.1231 89.3186 20.002C89.2581 20.0071 89.1972 20.0071 89.1367 20.002C89.0837 20.005 89.0306 20.005 88.9776 20.002H88.825C88.645 20.0012 88.4651 20.0099 88.2861 20.0282C88.1487 20.0402 88.0146 20.0768 87.8899 20.1362C87.7723 20.1966 87.6743 20.2898 87.6075 20.4046C87.5184 20.5543 87.4548 20.718 87.4191 20.8889C87.3281 20.9239 87.2308 20.9395 87.1334 20.9347C87.0772 20.9381 87.0208 20.9381 86.9646 20.9347C86.9148 20.9278 86.8658 20.9157 86.8185 20.8987L86.8672 19.0923H87.1432H87.4938H87.8477H92.507H92.8609H93.2116H93.4876L93.4713 20.8987Z" fill="#233E81"/>
<path d="M102.602 19.4064C102.605 19.4609 102.605 19.5156 102.602 19.5701C102.594 19.618 102.582 19.6652 102.566 19.7108C102.31 19.7169 102.064 19.8104 101.868 19.9759C101.733 20.1383 101.664 20.3467 101.676 20.5584C101.676 20.8235 101.676 21.1114 101.676 21.4191L101.628 25.1236C101.628 25.2774 101.628 25.4312 101.628 25.5883C101.628 25.7454 101.628 25.896 101.65 26.0367C101.662 26.1683 101.684 26.2986 101.718 26.4261C101.74 26.5245 101.79 26.6143 101.861 26.6846C101.938 26.7572 102.027 26.8149 102.124 26.8548C102.259 26.9091 102.402 26.9422 102.546 26.953C102.564 26.997 102.576 27.0432 102.582 27.0904C102.599 27.1988 102.599 27.3093 102.582 27.4177C102.576 27.4659 102.564 27.5132 102.546 27.5584H102.115C101.897 27.5584 101.66 27.5584 101.4 27.5584C101.14 27.5584 100.929 27.5584 100.767 27.5584C100.605 27.5584 100.387 27.5584 100.15 27.5584C99.9132 27.5584 99.6956 27.5584 99.5008 27.5584H99.0203C99.0041 27.5127 98.9922 27.4656 98.9845 27.4177C98.9672 27.3093 98.9672 27.1988 98.9845 27.0904C98.9918 27.0435 99.0037 26.9975 99.0203 26.953C99.2766 26.9467 99.523 26.852 99.7183 26.6846C99.7832 26.6104 99.8299 26.5218 99.8547 26.4261C99.8926 26.2992 99.9176 26.1687 99.9294 26.0367C99.9294 25.896 99.9489 25.7454 99.9521 25.5883C99.9554 25.4312 99.9521 25.2611 99.9521 25.1236V23.6575H96.8026V25.1236C96.8026 25.2774 96.8026 25.4312 96.8026 25.5883C96.8026 25.7454 96.8026 25.896 96.8286 26.0367C96.8372 26.1684 96.859 26.2988 96.8935 26.4261C96.9165 26.524 96.966 26.6135 97.0364 26.6846C97.1136 26.7579 97.204 26.8157 97.3026 26.8548C97.4364 26.9092 97.5777 26.9423 97.7215 26.953C97.7395 26.997 97.7515 27.0432 97.7572 27.0904C97.7746 27.1988 97.7746 27.3093 97.7572 27.4177C97.7511 27.4659 97.7391 27.5132 97.7215 27.5584H97.2897C97.0754 27.5584 96.8351 27.5584 96.5754 27.5584C96.3156 27.5584 96.1046 27.5584 95.9455 27.5584C95.7864 27.5584 95.5623 27.5584 95.3253 27.5584C95.0883 27.5584 94.8707 27.5584 94.6759 27.5584H94.1921C94.1749 27.5128 94.1619 27.4657 94.1532 27.4177C94.1402 27.309 94.1402 27.1991 94.1532 27.0904C94.1614 27.0434 94.1744 26.9973 94.1921 26.953C94.4475 26.9468 94.6929 26.852 94.887 26.6846C94.9524 26.6103 95.0001 26.5219 95.0266 26.4261C95.0634 26.2991 95.0873 26.1686 95.098 26.0367C95.098 25.896 95.1175 25.7454 95.1207 25.5883C95.124 25.4312 95.1207 25.2611 95.1207 25.1236L95.1565 21.4191C95.1565 21.1114 95.1565 20.8235 95.1565 20.5584C95.1661 20.3465 95.0966 20.1386 94.9616 19.9759C94.8854 19.9037 94.7961 19.8471 94.6987 19.8089C94.5638 19.7546 94.4214 19.7215 94.2766 19.7108C94.2601 19.6652 94.2481 19.618 94.2408 19.5701C94.2375 19.5156 94.2375 19.4609 94.2408 19.4064C94.2376 19.3519 94.2376 19.2973 94.2408 19.2428C94.2481 19.1959 94.26 19.1498 94.2766 19.1053H94.7116C94.9259 19.1053 95.1597 19.1053 95.4065 19.1053H96.0201H96.6208C96.8448 19.1053 97.0559 19.1053 97.2702 19.1053H97.7312C97.7492 19.1493 97.7613 19.1956 97.767 19.2428C97.7718 19.2972 97.7718 19.352 97.767 19.4064C97.772 19.4608 97.772 19.5156 97.767 19.5701C97.7612 19.6183 97.7492 19.6657 97.7312 19.7108C97.4756 19.7174 97.2296 19.8108 97.0332 19.9759C96.8994 20.1391 96.831 20.3469 96.8416 20.5584C96.8416 20.8235 96.8416 21.1114 96.8416 21.4191V22.751H99.9878V21.4191C99.9878 21.1114 99.9878 20.8235 99.9878 20.5584C99.9981 20.3396 99.9222 20.1255 99.7768 19.9628C99.7 19.8913 99.6109 19.8347 99.5138 19.7959C99.3789 19.7416 99.2365 19.7084 99.0917 19.6977C99.0737 19.6526 99.0617 19.6052 99.056 19.557C99.0509 19.5025 99.0509 19.4478 99.056 19.3933C99.0511 19.3389 99.0511 19.2841 99.056 19.2297C99.0617 19.1825 99.0737 19.1362 99.0917 19.0923H99.5235C99.7411 19.0923 99.9716 19.0923 100.222 19.0923H100.835H101.436C101.66 19.0923 101.871 19.0923 102.085 19.0923H102.566C102.582 19.1367 102.594 19.1828 102.602 19.2297C102.605 19.2885 102.605 19.3476 102.602 19.4064Z" fill="#233E81"/>
<path d="M109.579 27.5584H109.147H108.618H108.073H105.199C104.965 27.5584 104.725 27.5584 104.478 27.5584C104.232 27.5584 104.007 27.5584 103.829 27.5584H103.576C103.558 27.5128 103.545 27.4657 103.537 27.4177C103.524 27.309 103.524 27.1991 103.537 27.0904C103.545 27.0434 103.558 26.9973 103.576 26.953C103.831 26.9468 104.076 26.852 104.27 26.6846C104.336 26.6103 104.384 26.5219 104.41 26.4261C104.447 26.2991 104.471 26.1686 104.482 26.0367C104.482 25.896 104.501 25.7454 104.504 25.5883C104.508 25.4312 104.504 25.2611 104.504 25.1236L104.55 21.4191C104.55 21.2652 104.55 21.1114 104.55 20.9576C104.55 20.8038 104.53 20.6598 104.517 20.5289C104.503 20.4122 104.482 20.2964 104.456 20.182C104.442 20.1057 104.408 20.0345 104.358 19.9759C104.282 19.9037 104.193 19.8471 104.095 19.8089C103.961 19.755 103.82 19.7219 103.676 19.7108C103.659 19.6653 103.646 19.6182 103.637 19.57C103.634 19.5156 103.634 19.4609 103.637 19.4064C103.634 19.3519 103.634 19.2973 103.637 19.2428C103.646 19.1957 103.659 19.1497 103.676 19.1053H104.108C104.245 19.1053 104.433 19.1053 104.647 19.1053H105.296H108.771H109.18H109.54H109.774L109.81 20.9118C109.763 20.9284 109.715 20.9405 109.667 20.9478H109.498C109.4 20.9525 109.301 20.9369 109.209 20.902C109.173 20.7318 109.11 20.5683 109.024 20.4176C108.951 20.3 108.849 20.2031 108.728 20.1362C108.597 20.0693 108.453 20.0283 108.306 20.0151C108.147 20.0151 107.962 19.9922 107.754 19.9922H107.459H107.06H106.624C106.482 19.9922 106.352 19.9922 106.241 19.9922C106.251 20.1459 106.251 20.3 106.241 20.4536C106.241 20.6304 106.241 20.8496 106.241 21.1082V22.7183C106.328 22.7183 106.416 22.7183 106.504 22.7183H107.056C107.219 22.7193 107.382 22.7094 107.543 22.6888C107.682 22.6721 107.816 22.6264 107.936 22.5546C108.05 22.4822 108.147 22.3849 108.219 22.2699C108.303 22.1243 108.361 21.9647 108.391 21.7987C108.438 21.7817 108.487 21.7696 108.537 21.7627C108.592 21.7594 108.647 21.7594 108.702 21.7627C108.801 21.7566 108.9 21.7734 108.991 21.8118V22.0179C108.991 22.1063 108.991 22.2372 108.991 22.4041C108.991 22.571 108.972 22.823 108.972 23.1437C108.972 23.4644 108.972 23.7491 108.991 23.9422C109.011 24.1353 108.991 24.2695 108.991 24.3186V24.5444C108.946 24.5629 108.898 24.575 108.849 24.5804C108.792 24.5851 108.736 24.5851 108.68 24.5804C108.581 24.5864 108.482 24.5696 108.391 24.5313C108.364 24.3626 108.305 24.2005 108.219 24.0535C108.147 23.9424 108.05 23.8504 107.936 23.7851C107.813 23.7235 107.68 23.6826 107.543 23.6641C107.382 23.6435 107.219 23.6336 107.056 23.6346H106.644C106.495 23.6346 106.358 23.6346 106.228 23.6542V25.3233C106.228 25.4836 106.228 25.6505 106.228 25.7847C106.231 25.916 106.24 26.0472 106.258 26.1774C106.259 26.2592 106.289 26.338 106.342 26.3999C106.405 26.4528 106.479 26.4888 106.56 26.5047C106.674 26.5348 106.79 26.5567 106.907 26.5701C107.034 26.5701 107.163 26.5996 107.293 26.6061C107.423 26.6127 107.527 26.6061 107.618 26.6061C107.842 26.6061 108.04 26.6061 108.215 26.5897C108.373 26.5798 108.527 26.5398 108.67 26.4719C108.807 26.4057 108.927 26.3069 109.017 26.1839C109.138 26.0168 109.233 25.8326 109.3 25.6374C109.349 25.6186 109.4 25.6065 109.453 25.6014C109.51 25.5967 109.567 25.5967 109.625 25.6014C109.723 25.5954 109.822 25.6122 109.914 25.6505L109.579 27.5584Z" fill="#233E81"/>
<path d="M114.372 23.7197C114.372 23.9135 114.34 24.106 114.277 24.2891C114.212 24.3299 114.143 24.366 114.073 24.3971C113.969 24.4462 113.849 24.492 113.712 24.5411C113.574 24.591 113.433 24.6336 113.29 24.6687C113.161 24.7033 113.028 24.722 112.894 24.7244H110.553C110.537 24.6735 110.529 24.6206 110.527 24.5673V24.3971C110.526 24.203 110.559 24.0102 110.625 23.8277C110.689 23.7856 110.758 23.7495 110.829 23.7197C110.933 23.6695 111.053 23.6204 111.19 23.5724C111.326 23.5244 111.466 23.4819 111.608 23.4448C111.739 23.4113 111.873 23.3937 112.008 23.3924H114.349C114.364 23.4434 114.371 23.4963 114.372 23.5495V23.7197Z" fill="#233E81"/>
<path d="M118.554 19.4064C118.559 19.4608 118.559 19.5156 118.554 19.5701C118.548 19.6183 118.536 19.6657 118.518 19.7108C118.263 19.7174 118.018 19.8109 117.823 19.9759C117.688 20.1386 117.618 20.3465 117.628 20.5584C117.628 20.8235 117.628 21.1114 117.628 21.4191L117.592 25.1236C117.592 25.2774 117.592 25.4313 117.592 25.5883C117.592 25.7454 117.592 25.896 117.615 26.0367C117.625 26.1682 117.647 26.2985 117.68 26.4261C117.703 26.5248 117.754 26.6146 117.826 26.6846C117.902 26.7579 117.992 26.8157 118.089 26.8548C118.224 26.9091 118.366 26.9422 118.511 26.953C118.526 26.9979 118.538 27.0439 118.547 27.0904C118.56 27.1991 118.56 27.309 118.547 27.4177C118.538 27.4653 118.526 27.5123 118.511 27.5584H118.076C117.862 27.5584 117.622 27.5584 117.362 27.5584C117.102 27.5584 116.891 27.5584 116.732 27.5584C116.573 27.5584 116.349 27.5584 116.115 27.5584C115.881 27.5584 115.657 27.5584 115.466 27.5584H114.985C114.968 27.5132 114.956 27.4659 114.949 27.4177C114.932 27.3093 114.932 27.1988 114.949 27.0904C114.955 27.0432 114.967 26.997 114.985 26.953C115.241 26.9468 115.486 26.852 115.68 26.6846C115.747 26.6114 115.795 26.5226 115.82 26.4261C115.856 26.2991 115.88 26.1686 115.891 26.0367C115.891 25.896 115.911 25.7454 115.917 25.5883C115.924 25.4313 115.917 25.2611 115.917 25.1236L115.956 21.4191C115.956 21.1114 115.956 20.8235 115.956 20.5584C115.967 20.3469 115.898 20.1391 115.764 19.9759C115.687 19.9037 115.597 19.8471 115.498 19.809C115.364 19.7546 115.223 19.7215 115.079 19.7108C115.061 19.6657 115.049 19.6183 115.044 19.5701C115.039 19.5156 115.039 19.4608 115.044 19.4064C115.039 19.352 115.039 19.2972 115.044 19.2428C115.049 19.1956 115.061 19.1493 115.079 19.1053H115.511C115.725 19.1053 115.959 19.1053 116.209 19.1053H116.82H117.42C117.644 19.1053 117.859 19.1053 118.07 19.1053H118.511C118.529 19.1493 118.541 19.1956 118.547 19.2428C118.554 19.297 118.556 19.3518 118.554 19.4064ZM123.057 19.3835C123.06 19.4446 123.06 19.5057 123.057 19.5668C123.05 19.6159 123.038 19.6642 123.021 19.7108C122.832 19.701 122.643 19.7254 122.463 19.7828C122.296 19.8391 122.141 19.9256 122.005 20.038C121.858 20.1575 121.723 20.2912 121.602 20.4373C121.476 20.5911 121.343 20.7645 121.206 20.9347L119.485 23.1732L120.589 24.7473L121.024 25.3527C121.167 25.5556 121.3 25.7421 121.427 25.909L121.752 26.3476C121.815 26.4342 121.886 26.5152 121.963 26.5897C122.088 26.725 122.246 26.8263 122.421 26.8843C122.6 26.9337 122.786 26.9568 122.973 26.953C122.991 26.9991 123.003 27.0476 123.008 27.097C123.011 27.1537 123.011 27.2105 123.008 27.2672C123.013 27.3667 122.997 27.4661 122.96 27.5584L122.576 27.5748H122.252H121.927H121.563C121.271 27.5833 120.979 27.5502 120.696 27.4766C120.492 27.4148 120.307 27.3023 120.157 27.1494C120.067 27.0533 119.982 26.9517 119.904 26.845C119.8 26.7076 119.687 26.5505 119.56 26.3672L119.164 25.7814C119.024 25.572 118.888 25.3625 118.752 25.1498C118.429 24.6589 118.084 24.1222 117.716 23.5397L119.485 21.2129C119.557 21.1082 119.635 20.9969 119.719 20.8856C119.804 20.7744 119.881 20.6631 119.953 20.5584C120.021 20.4637 120.081 20.3642 120.135 20.2606C120.175 20.193 120.2 20.1168 120.206 20.038C120.209 19.9815 120.192 19.9258 120.157 19.8809C120.125 19.8397 120.084 19.8062 120.037 19.7828C119.986 19.7579 119.931 19.7392 119.875 19.7271C119.818 19.717 119.761 19.7115 119.703 19.7108C119.675 19.6163 119.663 19.5179 119.667 19.4195C119.659 19.3084 119.675 19.1969 119.713 19.0923H120.037H120.3H120.722C120.875 19.0923 121.021 19.0923 121.167 19.0923H121.817C121.927 19.0923 122.041 19.0923 122.141 19.0923H122.466H122.674H123.034C123.057 19.1876 123.064 19.2858 123.057 19.3835Z" fill="#233E81"/>
<path d="M131.973 19.4064C131.978 19.4608 131.978 19.5156 131.973 19.57C131.967 19.6183 131.955 19.6656 131.937 19.7108C131.682 19.7174 131.436 19.8108 131.239 19.9759C131.107 20.1399 131.039 20.3471 131.048 20.5584C131.048 20.8234 131.048 21.1114 131.048 21.4191L131.009 25.1236C131.009 25.2774 131.009 25.4312 131.009 25.5883C131.009 25.7454 131.009 25.896 131.035 26.0367C131.045 26.1682 131.067 26.2985 131.099 26.4261C131.122 26.524 131.172 26.6135 131.242 26.6846C131.32 26.7579 131.41 26.8157 131.509 26.8548C131.642 26.9092 131.784 26.9423 131.927 26.953C131.945 26.9973 131.958 27.0434 131.966 27.0904C131.979 27.1991 131.979 27.309 131.966 27.4177C131.958 27.4657 131.945 27.5128 131.927 27.5584H131.496C131.281 27.5584 131.041 27.5584 130.781 27.5584C130.522 27.5584 130.31 27.5584 130.151 27.5584C129.992 27.5584 129.768 27.5584 129.531 27.5584C129.294 27.5584 129.077 27.5584 128.882 27.5584H128.382C128.364 27.5132 128.352 27.4659 128.346 27.4177C128.329 27.3093 128.329 27.1988 128.346 27.0904C128.352 27.0432 128.364 26.997 128.382 26.953C128.637 26.9468 128.883 26.852 129.077 26.6846C129.142 26.6103 129.19 26.5219 129.216 26.4261C129.253 26.2991 129.277 26.1686 129.288 26.0367C129.288 25.896 129.307 25.7454 129.31 25.5883C129.314 25.4312 129.31 25.2611 129.31 25.1236V23.6575H126.164V25.1236C126.164 25.2774 126.164 25.4312 126.164 25.5883C126.164 25.7454 126.164 25.896 126.187 26.0367C126.199 26.1679 126.221 26.2981 126.252 26.4261C126.275 26.5248 126.325 26.6146 126.398 26.6846C126.475 26.7572 126.564 26.8149 126.661 26.8548C126.796 26.9091 126.938 26.9422 127.083 26.953C127.1 26.9975 127.112 27.0435 127.119 27.0904C127.132 27.1991 127.132 27.309 127.119 27.4177C127.111 27.4656 127.099 27.5127 127.083 27.5584H126.661C126.447 27.5584 126.21 27.5584 125.947 27.5584C125.684 27.5584 125.476 27.5584 125.317 27.5584C125.158 27.5584 124.934 27.5584 124.7 27.5584C124.466 27.5584 124.242 27.5584 124.05 27.5584H123.57C123.552 27.5132 123.54 27.4659 123.534 27.4177C123.517 27.3093 123.517 27.1988 123.534 27.0904C123.54 27.0432 123.552 26.997 123.57 26.953C123.826 26.9467 124.073 26.852 124.268 26.6846C124.333 26.6104 124.38 26.5218 124.404 26.4261C124.443 26.2994 124.467 26.1688 124.476 26.0367C124.476 25.896 124.495 25.7454 124.502 25.5883C124.508 25.4312 124.502 25.2611 124.502 25.1236L124.538 21.4191C124.538 21.1114 124.538 20.8234 124.538 20.5584C124.548 20.3469 124.48 20.1391 124.346 19.9759C124.269 19.9037 124.178 19.8471 124.08 19.8089C123.946 19.7543 123.805 19.7211 123.661 19.7108C123.643 19.6656 123.631 19.6183 123.625 19.57C123.62 19.5156 123.62 19.4608 123.625 19.4064C123.62 19.352 123.62 19.2972 123.625 19.2428C123.631 19.1956 123.643 19.1493 123.661 19.1053H124.093C124.31 19.1053 124.541 19.1053 124.791 19.1053H125.401H126.002C126.226 19.1053 126.44 19.1053 126.651 19.1053H127.132C127.15 19.1493 127.162 19.1956 127.168 19.2428C127.172 19.2972 127.172 19.352 127.168 19.4064C127.173 19.4608 127.173 19.5156 127.168 19.57C127.162 19.6183 127.15 19.6656 127.132 19.7108C126.877 19.7174 126.632 19.8108 126.437 19.9759C126.302 20.1383 126.233 20.3467 126.245 20.5584C126.245 20.8234 126.245 21.1114 126.245 21.4191V22.751H129.395V21.4191C129.395 21.1114 129.395 20.8234 129.395 20.5584C129.405 20.3465 129.335 20.1386 129.2 19.9759C129.124 19.903 129.035 19.8462 128.937 19.8089C128.802 19.7546 128.66 19.7215 128.515 19.7108C128.5 19.6647 128.488 19.6177 128.479 19.57C128.476 19.5156 128.476 19.4609 128.479 19.4064C128.476 19.3519 128.476 19.2973 128.479 19.2428C128.488 19.1962 128.5 19.1503 128.515 19.1053H128.901C129.116 19.1053 129.349 19.1053 129.596 19.1053H130.21H130.811C131.035 19.1053 131.246 19.1053 131.46 19.1053H131.94C131.958 19.1493 131.97 19.1956 131.976 19.2428C131.98 19.2973 131.979 19.3521 131.973 19.4064Z" fill="#233E81"/>
<path d="M141.33 27.2541C141.335 27.3063 141.335 27.3589 141.33 27.4112C141.325 27.4616 141.313 27.511 141.295 27.5584H140.947H140.691C140.58 27.5584 140.463 27.5584 140.334 27.5584H139.944H139.59H139.194H138.713C138.554 27.5584 138.408 27.5584 138.275 27.5584H137.993H137.645C137.627 27.509 137.615 27.4573 137.609 27.4046C137.605 27.3545 137.605 27.3042 137.609 27.2541C137.606 27.2018 137.606 27.1493 137.609 27.097C137.611 27.0477 137.621 26.9991 137.639 26.953C137.71 26.953 137.795 26.9366 137.892 26.9039C137.986 26.8788 138.078 26.8482 138.168 26.8123C138.25 26.7809 138.325 26.7331 138.389 26.6716C138.417 26.6481 138.44 26.6186 138.456 26.5852C138.471 26.5518 138.479 26.5154 138.48 26.4785C138.47 26.2895 138.436 26.1026 138.379 25.9221C138.308 25.6898 138.22 25.3887 138.106 25.0254L137.937 24.5051H135.249L135.057 25.0516C134.921 25.4313 134.817 25.7454 134.749 25.9941C134.695 26.1674 134.661 26.3464 134.648 26.5276C134.65 26.5622 134.659 26.5959 134.677 26.6256C134.695 26.6554 134.719 26.6802 134.749 26.6977C134.822 26.7493 134.9 26.7922 134.983 26.8254C135.07 26.8596 135.158 26.8881 135.249 26.9105L135.454 26.953C135.47 27.0016 135.48 27.0522 135.483 27.1035C135.483 27.1624 135.483 27.2148 135.483 27.2541C135.483 27.2933 135.483 27.3555 135.483 27.4112C135.479 27.4613 135.469 27.5107 135.454 27.5584H135.152H134.882C134.749 27.5584 134.606 27.5584 134.45 27.5584H133.992H133.639C133.431 27.5584 133.233 27.5584 133.044 27.5584H132.606H132.304C132.285 27.509 132.273 27.4573 132.268 27.4046C132.268 27.3457 132.268 27.2933 132.268 27.2541C132.265 27.2018 132.265 27.1493 132.268 27.097C132.274 27.0476 132.286 26.9991 132.304 26.953L132.629 26.8712C132.777 26.8367 132.913 26.7594 133.018 26.6487C133.098 26.5545 133.167 26.4513 133.223 26.341C133.312 26.1839 133.399 26.0138 133.486 25.8305C133.577 25.6505 133.658 25.4771 133.733 25.3167C133.789 25.2027 133.84 25.0858 133.885 24.9665L136.249 19.0333L137.609 18.8632L139.843 25.0385C139.98 25.4247 140.103 25.7454 140.217 25.9941C140.316 26.2291 140.458 26.4433 140.636 26.6257C140.729 26.7183 140.839 26.7917 140.96 26.8417C141.064 26.8913 141.173 26.9286 141.285 26.953C141.304 27.0012 141.316 27.0519 141.321 27.1035C141.328 27.1534 141.331 27.2037 141.33 27.2541ZM136.947 21.5401C136.876 21.3361 136.82 21.1272 136.778 20.9151C136.739 20.7089 136.7 20.542 136.671 20.4144C136.639 20.542 136.593 20.7089 136.532 20.9151C136.47 21.1213 136.398 21.3372 136.311 21.5696L135.564 23.6051H137.619L136.947 21.5401Z" fill="#233E81"/>
<path d="M149.526 27.2541C149.529 27.3086 149.529 27.3632 149.526 27.4177C149.518 27.4656 149.506 27.5127 149.49 27.5584L148.84 27.5748H148.094C147.873 27.5845 147.653 27.5535 147.444 27.4832C147.265 27.4098 147.103 27.2981 146.97 27.1559C146.908 27.0953 146.853 27.0271 146.808 26.953C146.733 26.8385 146.646 26.6977 146.545 26.5276L146.22 25.9712L145.86 25.3527C145.581 24.8618 145.266 24.3153 144.921 23.7164C144.923 23.6148 144.947 23.5149 144.994 23.4246C145.04 23.3342 145.106 23.256 145.188 23.1961C145.421 23.1429 145.649 23.0651 145.866 22.9637C146.061 22.8743 146.239 22.7539 146.396 22.607C146.551 22.4644 146.675 22.2905 146.759 22.0965C146.848 21.8695 146.891 21.627 146.886 21.3831C146.899 21.187 146.871 20.9904 146.803 20.8063C146.734 20.6223 146.628 20.4552 146.49 20.3162C146.352 20.1773 146.186 20.0698 146.003 20.0009C145.821 19.932 145.626 19.9034 145.431 19.9169C145.383 19.9169 145.311 19.9169 145.21 19.9169H144.905C144.798 19.9169 144.701 19.9169 144.603 19.9366H144.399C144.399 20.0904 144.399 20.2638 144.399 20.4078C144.399 20.5518 144.399 20.6991 144.399 20.8693V21.3536L144.36 25.0942C144.36 25.248 144.36 25.4018 144.36 25.5589C144.36 25.716 144.36 25.8665 144.386 26.0072C144.396 26.1387 144.418 26.269 144.451 26.3967C144.473 26.4953 144.524 26.5852 144.597 26.6552C144.658 26.719 144.725 26.776 144.798 26.8254C144.909 26.8851 145.033 26.9187 145.158 26.9235C145.176 26.9675 145.188 27.0138 145.194 27.061C145.212 27.1694 145.212 27.2799 145.194 27.3883C145.188 27.4365 145.176 27.4837 145.158 27.529H144.834C144.619 27.529 144.379 27.529 144.119 27.529C143.86 27.529 143.649 27.529 143.49 27.529C143.33 27.529 143.106 27.529 142.869 27.529C142.632 27.529 142.415 27.529 142.22 27.529H141.74C141.722 27.4837 141.71 27.4365 141.704 27.3883C141.686 27.2799 141.686 27.1694 141.704 27.061C141.709 27.0138 141.722 26.9675 141.74 26.9235C141.995 26.9173 142.24 26.8225 142.434 26.6552C142.5 26.5808 142.547 26.4924 142.574 26.3967C142.611 26.2696 142.635 26.1391 142.645 26.0072C142.645 25.8665 142.665 25.716 142.668 25.5589C142.671 25.4018 142.668 25.2316 142.668 25.0942L142.694 21.3896C142.694 21.082 142.694 20.794 142.694 20.5289C142.693 20.3192 142.614 20.1174 142.473 19.9628C142.397 19.8921 142.309 19.8355 142.214 19.7959C142.082 19.7411 141.943 19.7079 141.801 19.6977C141.784 19.6522 141.77 19.6051 141.762 19.557C141.759 19.5025 141.759 19.4478 141.762 19.3933C141.759 19.2898 141.779 19.1869 141.821 19.0923H142.47L143.347 19.0693L144.363 19.0432L145.337 19.0203H146.038C146.382 19.0177 146.726 19.0551 147.061 19.1315C147.364 19.1957 147.652 19.3191 147.909 19.4948C148.153 19.6612 148.353 19.8861 148.49 20.1493C148.644 20.4609 148.718 20.8061 148.707 21.154C148.711 21.4317 148.66 21.7074 148.558 21.9656C148.459 22.2128 148.318 22.4409 148.142 22.6397C147.963 22.8395 147.752 23.0086 147.519 23.1404C147.278 23.2831 147.019 23.3931 146.749 23.4677C147.074 24.024 147.376 24.5313 147.649 24.9829L148.006 25.5556C148.12 25.7454 148.227 25.9221 148.331 26.0825C148.435 26.2428 148.519 26.3836 148.597 26.4948C148.645 26.575 148.703 26.6487 148.769 26.7141C148.841 26.7931 148.928 26.8566 149.025 26.9004C149.123 26.9443 149.228 26.9678 149.334 26.9694H149.516C149.532 27.0138 149.544 27.0599 149.552 27.1068C149.546 27.1564 149.537 27.2055 149.526 27.2541Z" fill="#233E81"/>
<path d="M153.646 19.4064C153.649 19.4609 153.649 19.5156 153.646 19.57C153.639 19.618 153.627 19.6652 153.61 19.7108C153.354 19.7174 153.109 19.8108 152.912 19.9759C152.777 20.1383 152.708 20.3467 152.72 20.5584C152.72 20.8234 152.72 21.1114 152.72 21.4191L152.685 25.1236C152.685 25.2774 152.685 25.4312 152.685 25.5883C152.685 25.7454 152.685 25.896 152.707 26.0367C152.719 26.1683 152.742 26.2986 152.776 26.4261C152.797 26.5245 152.847 26.6143 152.919 26.6846C152.996 26.7579 153.086 26.8157 153.185 26.8548C153.318 26.9095 153.46 26.9426 153.604 26.953C153.622 26.997 153.634 27.0432 153.639 27.0904C153.657 27.1988 153.657 27.3093 153.639 27.4177C153.633 27.4659 153.621 27.5132 153.604 27.5584H153.172C152.954 27.5584 152.717 27.5584 152.457 27.5584C152.198 27.5584 151.987 27.5584 151.828 27.5584C151.668 27.5584 151.444 27.5584 151.207 27.5584C150.97 27.5584 150.753 27.5584 150.558 27.5584H150.078C150.061 27.5127 150.049 27.4656 150.042 27.4177C150.025 27.3093 150.025 27.1988 150.042 27.0904C150.049 27.0435 150.061 26.9975 150.078 26.953C150.334 26.9467 150.58 26.852 150.776 26.6846C150.84 26.6098 150.888 26.5216 150.915 26.4261C150.95 26.2987 150.974 26.1684 150.987 26.0367C150.987 25.896 151.006 25.7454 151.009 25.5883C151.013 25.4312 151.009 25.2611 151.009 25.1236L151.045 21.4191C151.045 21.1114 151.045 20.8234 151.045 20.5584C151.057 20.3467 150.989 20.1383 150.854 19.9759C150.777 19.9044 150.688 19.8478 150.591 19.8089C150.456 19.7546 150.313 19.7215 150.168 19.7108C150.152 19.6652 150.14 19.618 150.133 19.57C150.129 19.5156 150.129 19.4609 150.133 19.4064C150.129 19.3519 150.129 19.2973 150.133 19.2428C150.14 19.1959 150.152 19.1498 150.168 19.1053H150.6C150.818 19.1053 151.052 19.1053 151.298 19.1053H151.912H152.513C152.737 19.1053 152.948 19.1053 153.162 19.1053H153.643C153.659 19.1498 153.671 19.1959 153.678 19.2428C153.671 19.2979 153.66 19.3526 153.646 19.4064Z" fill="#233E81"/>
<path d="M160 25.2447C160.02 25.6633 159.906 26.0773 159.675 26.4261C159.445 26.7427 159.149 27.0051 158.808 27.1952C158.455 27.3901 158.074 27.5302 157.678 27.6108C157.306 27.6924 156.926 27.7352 156.545 27.7384C156.383 27.7384 156.221 27.7384 156.016 27.7221L155.464 27.6795L155 27.6304L154.73 27.5944L154.672 25.788C154.718 25.7705 154.766 25.7585 154.815 25.752C154.871 25.7486 154.927 25.7486 154.984 25.752C155.081 25.7471 155.178 25.7628 155.269 25.7978C155.447 26.4697 155.948 26.8046 156.773 26.8025C156.955 26.8008 157.137 26.7865 157.318 26.7599C157.488 26.7419 157.655 26.708 157.818 26.6585C157.962 26.483 158.072 26.2821 158.143 26.0661C158.218 25.856 158.258 25.6349 158.263 25.4116C158.279 25.121 158.186 24.835 158.003 24.6098C157.82 24.4068 157.599 24.2413 157.354 24.1222C157.079 23.9821 156.797 23.8565 156.51 23.7459C156.21 23.6307 155.926 23.4802 155.662 23.2975C155.36 23.0941 155.117 22.8137 154.957 22.485C154.798 22.1562 154.727 21.7907 154.753 21.4256C154.736 20.998 154.849 20.5753 155.078 20.2148C155.295 19.8974 155.58 19.6334 155.912 19.4424C156.251 19.2458 156.621 19.1086 157.006 19.0366C157.37 18.9611 157.739 18.9217 158.11 18.9188C158.273 18.9188 158.435 18.9188 158.64 18.9384L159.185 18.981L159.643 19.0301C159.776 19.0464 159.864 19.0563 159.912 19.0661L159.948 20.8202C159.902 20.8387 159.854 20.8508 159.805 20.8562C159.749 20.8611 159.693 20.8611 159.636 20.8562C159.538 20.8614 159.439 20.8447 159.347 20.8071C159.255 20.5152 159.065 20.265 158.808 20.1002C158.526 19.9267 158.2 19.8403 157.87 19.8515C157.695 19.8529 157.52 19.8671 157.347 19.894C157.187 19.9153 157.028 19.9492 156.873 19.9955C156.756 20.1626 156.665 20.3469 156.604 20.542C156.539 20.7372 156.505 20.9415 156.503 21.1474C156.486 21.4297 156.578 21.7077 156.76 21.923C156.946 22.1182 157.166 22.2778 157.409 22.3943C157.669 22.5252 157.951 22.6496 158.256 22.7706C158.555 22.8952 158.838 23.0568 159.097 23.2517C159.366 23.4515 159.588 23.7085 159.747 24.0044C159.934 24.3897 160.021 24.8164 160 25.2447Z" fill="#233E81"/>
<path d="M89.5426 38.9241C89.5472 38.9567 89.5472 38.9897 89.5426 39.0223C89.3965 39.0583 89.2504 39.0845 89.1075 39.1074C88.9633 39.1271 88.818 39.1369 88.6724 39.1368C88.4671 39.1376 88.2672 39.0697 88.1042 38.9437C87.9375 38.8158 87.7821 38.6735 87.6399 38.5183C87.4112 38.7209 87.1469 38.8785 86.8607 38.983C86.5791 39.0837 86.2827 39.1357 85.984 39.1368C85.6941 39.1406 85.4052 39.1009 85.1268 39.019C84.8887 38.9472 84.6677 38.8269 84.4775 38.6656C84.2971 38.5061 84.154 38.3082 84.0586 38.0863C83.9557 37.8343 83.9048 37.5637 83.9092 37.2911C83.9077 37.1038 83.95 36.9188 84.0326 36.7511C84.1191 36.5809 84.2283 36.4234 84.3573 36.2831C84.4964 36.1304 84.6485 35.9902 84.8119 35.8642C84.984 35.7301 85.1528 35.6024 85.3216 35.4781C85.1654 35.2221 85.0297 34.954 84.9158 34.6763C84.8232 34.47 84.7704 34.2479 84.7599 34.0218C84.7592 33.8399 84.8074 33.6611 84.8996 33.5047C84.9941 33.348 85.1202 33.2131 85.2697 33.1087C85.4244 32.9969 85.5952 32.9097 85.7762 32.8502C85.9574 32.7898 86.147 32.7589 86.3379 32.7586C86.4929 32.7582 86.6475 32.7746 86.799 32.8077C86.9403 32.8374 87.0748 32.8941 87.1951 32.9746C87.3121 33.0594 87.4069 33.1717 87.4711 33.3018C87.5443 33.4523 87.5799 33.6186 87.575 33.7862C87.5758 33.9535 87.5333 34.1182 87.4516 34.264C87.3656 34.4188 87.2561 34.559 87.1269 34.6796C86.981 34.8167 86.8259 34.9436 86.6626 35.0592L86.1399 35.4323C86.247 35.5959 86.3671 35.7595 86.5035 35.9624C86.6399 36.1653 86.786 36.3388 86.9353 36.5319C87.0847 36.7249 87.2308 36.9115 87.3802 37.098L87.8055 37.6151C87.915 37.3894 87.9999 37.1523 88.0588 36.9082C88.1176 36.6948 88.1503 36.475 88.1562 36.2537C88.1671 36.1704 88.1487 36.0859 88.1042 36.0148C88.0425 35.9512 87.9669 35.9031 87.8834 35.8741C87.8109 35.8456 87.734 35.8301 87.6562 35.8282C87.645 35.8083 87.6394 35.7857 87.6399 35.7628V35.6712C87.6409 35.6271 87.6464 35.5832 87.6562 35.5403H87.9646C87.9948 35.5436 88.0253 35.5436 88.0555 35.5403H88.1464C88.2048 35.5437 88.2634 35.5437 88.3218 35.5403H88.5166C88.6497 35.5403 88.7828 35.5403 88.9094 35.5403H89.2699H89.5166C89.5382 35.6295 89.5382 35.7227 89.5166 35.8119H89.3932C89.3341 35.8229 89.2756 35.8371 89.2179 35.8544C89.1545 35.8708 89.0925 35.8927 89.0328 35.9199C88.9811 35.9414 88.9337 35.9725 88.8932 36.0115C88.8342 36.0882 88.7941 36.1779 88.7763 36.2733L88.6335 36.7511C88.5783 36.9344 88.5101 37.1373 88.4289 37.35C88.3479 37.5655 88.2445 37.7717 88.1205 37.9652L88.3575 38.2303C88.4446 38.3237 88.5368 38.4122 88.6335 38.4954C88.7243 38.5737 88.8234 38.6417 88.9289 38.6983C89.0142 38.7472 89.1101 38.7742 89.2082 38.7768H89.3348C89.3897 38.777 89.4444 38.7693 89.4971 38.7539C89.5184 38.7764 89.532 38.805 89.5361 38.8358C89.5422 38.8648 89.5444 38.8945 89.5426 38.9241ZM87.3412 38.2009C87.2113 38.0536 87.0717 37.8736 86.9159 37.6969C86.76 37.5202 86.5912 37.3107 86.4418 37.1046C86.2925 36.8984 86.1171 36.6889 85.9678 36.4729C85.8184 36.257 85.6756 36.0541 85.5522 35.8577C85.3224 36.0082 85.122 36.2002 84.9612 36.4239C84.8032 36.6673 84.7248 36.9546 84.7372 37.2453C84.7374 37.4183 84.7716 37.5896 84.8379 37.7493C84.9037 37.9136 85.002 38.0628 85.1268 38.1878C85.2594 38.3193 85.416 38.4237 85.5879 38.4954C85.7816 38.579 85.9908 38.6203 86.2015 38.6165C86.4168 38.6183 86.6304 38.5794 86.8314 38.5019C87.0164 38.43 87.1885 38.3283 87.3412 38.2009ZM86.9289 33.8254C86.9324 33.7374 86.9175 33.6497 86.885 33.5679C86.8526 33.4861 86.8033 33.4122 86.7405 33.3509C86.6743 33.288 86.5962 33.239 86.5109 33.207C86.4255 33.1749 86.3347 33.1605 86.2438 33.1644C86.181 33.1606 86.1182 33.1606 86.0554 33.1644L85.8671 33.1938C85.7392 33.2596 85.6331 33.3614 85.5616 33.4869C85.4901 33.6125 85.4564 33.7562 85.4645 33.9007C85.4734 34.074 85.5153 34.244 85.5879 34.4014C85.6807 34.627 85.7892 34.8457 85.9126 35.0559C86.1671 34.8758 86.4071 34.6755 86.6301 34.457C86.7207 34.3782 86.7943 34.2815 86.8462 34.1728C86.8981 34.0642 86.9274 33.9459 86.9321 33.8254H86.9289Z" fill="#233E81"/>
<path d="M97.1013 34.3032C97.1117 34.6218 97.0144 34.9345 96.8254 35.1901C96.6369 35.4334 96.3988 35.6331 96.1273 35.7759C95.8352 35.93 95.5224 36.0403 95.1987 36.1031C94.8778 36.1682 94.5518 36.2043 94.2246 36.2111V37.422C94.2246 37.5889 94.2246 37.7493 94.2246 37.8998C94.2246 38.0503 94.2246 38.1878 94.2473 38.3056C94.2473 38.3797 94.2652 38.4527 94.2993 38.5183C94.3639 38.5777 94.4419 38.6204 94.5266 38.6427C94.6261 38.6732 94.7463 38.7027 94.887 38.731C94.8978 38.7739 94.9044 38.8178 94.9064 38.8619C94.9079 38.8826 94.9079 38.9034 94.9064 38.9241C94.9064 38.947 94.9064 38.9765 94.9064 39.0059H94.6629H94.2701H93.8447H93.4259H93.0395H92.7927C92.7927 38.9765 92.7927 38.947 92.7927 38.9241C92.7912 38.9034 92.7912 38.8826 92.7927 38.8619C92.7897 38.8184 92.7897 38.7746 92.7927 38.731C92.9221 38.7067 93.05 38.675 93.1759 38.6361C93.2585 38.6147 93.3352 38.5744 93.3999 38.5183C93.4268 38.4553 93.44 38.3873 93.4389 38.3187C93.4389 38.2041 93.4551 38.07 93.4648 37.9129C93.4746 37.7558 93.4648 37.5856 93.4811 37.4285C93.4973 37.2715 93.4811 37.1013 93.4811 36.99V34.4898V34.1167C93.4811 33.9956 93.4811 33.8811 93.4811 33.7894C93.4798 33.6996 93.4722 33.6099 93.4583 33.5211C93.4561 33.4719 93.4404 33.4243 93.4129 33.3836C93.3494 33.3268 93.2739 33.2854 93.1921 33.2625C93.0882 33.2331 92.9616 33.2004 92.809 33.1709C92.8005 33.1277 92.7951 33.084 92.7927 33.04C92.7912 33.0193 92.7912 32.9985 92.7927 32.9778C92.7927 32.9549 92.7927 32.9255 92.7927 32.896H93.3187L93.77 32.8731L94.2603 32.8469L94.7441 32.824H95.1694C95.4091 32.8225 95.6483 32.8444 95.8838 32.8895C96.1009 32.9276 96.3084 33.0088 96.4942 33.1284C96.6713 33.2455 96.8156 33.4067 96.913 33.5964C97.0313 33.8133 97.0959 34.0558 97.1013 34.3032ZM96.2604 34.4374C96.2752 34.2602 96.2479 34.0819 96.1807 33.9174C96.1135 33.7529 96.0084 33.607 95.874 33.4916C95.5913 33.2855 95.2487 33.1796 94.9 33.1905H94.7279H94.5298H94.3025C94.3025 33.2462 94.3025 33.3182 94.3025 33.4131C94.3025 33.508 94.3025 33.6127 94.3025 33.7403C94.3025 33.868 94.3025 33.976 94.3025 34.1003C94.3025 34.2247 94.3025 34.3458 94.3025 34.4505L94.2863 35.7137H94.5493H94.8123C94.9454 35.7137 95.072 35.7137 95.1889 35.7137C95.2866 35.7071 95.3834 35.6906 95.4779 35.6646C95.7186 35.5667 95.9253 35.3994 96.0721 35.1836C96.2057 34.9586 96.2711 34.6993 96.2604 34.4374Z" fill="#233E81"/>
<path d="M103.218 38.8619C103.222 38.8869 103.222 38.9122 103.218 38.9372C103.218 38.9634 103.212 38.9863 103.199 39.0059H102.926H102.602C102.465 39.0059 102.319 39.0059 102.166 39.0059H101.916H101.423H101.257H101.011C100.999 38.9589 100.993 38.9104 100.994 38.8619C100.994 38.8177 100.999 38.7737 101.011 38.731L101.157 38.7048C101.221 38.6916 101.283 38.6741 101.345 38.6525C101.403 38.6301 101.459 38.6016 101.511 38.5674C101.532 38.5548 101.549 38.5372 101.562 38.516C101.574 38.4949 101.581 38.4709 101.582 38.4463C101.567 38.3109 101.535 38.1779 101.488 38.0503C101.426 37.8572 101.335 37.5627 101.212 37.1765L100.975 36.4435H98.9066L98.7053 36.9802C98.6533 37.1176 98.6014 37.2584 98.5527 37.4089C98.504 37.5594 98.4553 37.7034 98.4163 37.8409C98.3774 37.9783 98.3416 38.106 98.3189 38.214C98.3007 38.2881 98.2887 38.3636 98.2832 38.4398C98.2849 38.4646 98.2923 38.4887 98.3046 38.5103C98.317 38.5318 98.3341 38.5502 98.3546 38.5641C98.4062 38.6001 98.4617 38.6298 98.5202 38.6525C98.5818 38.6741 98.6447 38.6916 98.7085 38.7048L98.8546 38.731C98.8644 38.774 98.8699 38.8179 98.8709 38.8619C98.8703 38.9104 98.8648 38.9586 98.8546 39.0059H98.6339H98.4813H98.0267H97.8124C97.6598 39.0059 97.5299 39.0059 97.426 39.0059H97.1533H96.9422C96.9303 38.9875 96.9246 38.9657 96.926 38.9437V38.8619C96.927 38.8179 96.9325 38.774 96.9422 38.731L97.1825 38.6787C97.291 38.6539 97.3902 38.5982 97.4682 38.5183C97.5353 38.4351 97.59 38.3425 97.6306 38.2434C97.6988 38.1027 97.7669 37.9489 97.8416 37.7853C97.9163 37.6216 97.9812 37.458 98.0429 37.3075C98.1046 37.1569 98.1468 37.0456 98.1696 36.9802L99.7475 32.8011L100.433 32.6964L102.072 37.1831C102.096 37.2551 102.132 37.3642 102.179 37.5104C102.231 37.6478 102.287 37.7918 102.348 37.9358C102.41 38.0798 102.472 38.214 102.537 38.3383C102.584 38.4335 102.643 38.5226 102.712 38.6034C102.776 38.6655 102.86 38.7036 102.949 38.7114L103.192 38.7441C103.21 38.7809 103.219 38.8212 103.218 38.8619ZM100.212 34.1887C100.174 34.0814 100.143 33.9722 100.118 33.8614C100.092 33.76 100.072 33.6683 100.056 33.5865C100.029 33.5037 100.012 33.4181 100.004 33.3313C99.9897 33.3686 99.9778 33.4069 99.9683 33.4458C99.9683 33.4883 99.9456 33.5309 99.9326 33.5767C99.9196 33.6225 99.8807 33.7534 99.8482 33.8614C99.8157 33.9694 99.7768 34.0807 99.7313 34.1887L99.0559 36.0344H100.845L100.212 34.1887Z" fill="#233E81"/>
<path d="M109.004 38.8718C109.003 38.9176 108.995 38.963 108.978 39.0059H108.842H108.647H108.449H108.303C108.156 39.0096 108.008 38.9942 107.865 38.9601C107.755 38.9279 107.655 38.867 107.576 38.7834C107.486 38.6882 107.401 38.5876 107.323 38.4823C107.212 38.3416 107.089 38.178 106.949 37.9882C106.81 37.7983 106.667 37.602 106.517 37.3925C106.368 37.1831 106.222 36.9835 106.092 36.7904C105.962 36.5973 105.842 36.4271 105.741 36.2733C105.641 36.1195 105.566 36.0082 105.524 35.9461C105.528 35.8922 105.54 35.8393 105.559 35.789C105.581 35.7492 105.609 35.7129 105.641 35.681C105.843 35.6521 106.043 35.6017 106.235 35.5304C106.409 35.4666 106.573 35.3749 106.719 35.2588C106.854 35.1529 106.964 35.019 107.043 34.8661C107.116 34.7085 107.152 34.536 107.147 34.3621C107.153 34.172 107.116 33.983 107.04 33.8091C106.976 33.6667 106.878 33.5429 106.754 33.4491C106.631 33.3537 106.49 33.2856 106.339 33.2495C106.175 33.2067 106.007 33.1858 105.839 33.1873H105.663H105.472H105.287H105.147L105.131 33.5767C105.131 33.6945 105.131 33.832 105.131 33.9891C105.131 34.1461 105.131 34.3163 105.131 34.4799L105.115 36.954C105.115 36.9933 105.115 37.0915 105.115 37.2453C105.115 37.3991 105.115 37.5725 105.115 37.7362C105.115 37.8998 105.115 38.0634 105.131 38.2107C105.127 38.2974 105.143 38.3839 105.18 38.4627C105.36 38.5925 105.572 38.6695 105.793 38.6852C105.796 38.7288 105.796 38.7725 105.793 38.8161C105.795 38.8368 105.795 38.8576 105.793 38.8783C105.793 38.9012 105.793 38.9307 105.793 38.9601H105.524H105.131H104.699H104.28H103.894H103.647C103.647 38.9307 103.647 38.9012 103.647 38.8783C103.646 38.8576 103.646 38.8368 103.647 38.8161C103.649 38.7721 103.655 38.7284 103.663 38.6852C103.878 38.6701 104.084 38.5966 104.261 38.4725C104.298 38.3941 104.316 38.3075 104.313 38.2205C104.313 38.0765 104.332 37.9162 104.339 37.7427C104.345 37.5693 104.339 37.4155 104.339 37.2518V36.954L104.365 34.4799V34.228C104.365 34.1058 104.365 33.9814 104.365 33.8549C104.365 33.7305 104.365 33.6127 104.345 33.508C104.326 33.4033 104.322 33.3378 104.303 33.3214C104.239 33.2646 104.164 33.2232 104.082 33.2004C103.978 33.1709 103.852 33.1382 103.699 33.1087C103.691 33.0655 103.685 33.0218 103.683 32.9778C103.681 32.9571 103.681 32.9363 103.683 32.9156C103.683 32.8927 103.683 32.8633 103.683 32.8338H103.809C103.87 32.8369 103.931 32.8369 103.991 32.8338H104.098H104.219L104.683 32.8109L105.193 32.7847L105.673 32.7618H106.069C106.287 32.7627 106.504 32.7791 106.719 32.8109C106.936 32.8392 107.147 32.9092 107.339 33.0171C107.528 33.1252 107.687 33.2807 107.8 33.4687C107.929 33.7059 107.99 33.9742 107.978 34.2443C107.992 34.4464 107.962 34.6491 107.892 34.8387C107.821 35.0284 107.711 35.2006 107.569 35.3439C107.245 35.6455 106.837 35.8397 106.4 35.9002C106.449 35.9788 106.521 36.0901 106.621 36.2275C106.722 36.365 106.832 36.5286 106.946 36.702L107.339 37.2485L107.735 37.7787L108.06 38.2107C108.132 38.3009 108.21 38.3862 108.293 38.466C108.376 38.5414 108.467 38.6083 108.563 38.6656C108.641 38.7117 108.729 38.7376 108.819 38.7408H108.949C108.959 38.7605 108.965 38.7815 108.969 38.803C108.982 38.8253 108.994 38.8482 109.004 38.8718Z" fill="#233E81"/>
<path d="M113.696 33.9072C113.652 33.9104 113.607 33.9104 113.563 33.9072H113.501H113.423C113.369 33.7099 113.247 33.5383 113.079 33.4229C112.891 33.336 112.685 33.2956 112.479 33.3051H112.066C111.907 33.3051 111.78 33.3051 111.68 33.3051C111.677 33.353 111.677 33.4011 111.68 33.4491V33.6127C111.68 33.7142 111.68 33.8385 111.68 33.9891C111.68 34.1396 111.68 34.3163 111.68 34.4963V36.9704V37.5136C111.68 37.6925 111.68 37.8529 111.68 37.9947C111.68 38.1387 111.68 38.2565 111.703 38.3481C111.7 38.4031 111.71 38.4579 111.732 38.5085C111.796 38.566 111.873 38.6065 111.956 38.6263C112.081 38.6652 112.207 38.6969 112.336 38.7212C112.347 38.7641 112.353 38.8079 112.355 38.8521C112.357 38.8728 112.357 38.8936 112.355 38.9143C112.355 38.9372 112.355 38.9667 112.355 38.9961H112.112H111.722H111.297H110.875H110.488H110.245C110.242 38.9689 110.242 38.9415 110.245 38.9143C110.243 38.8936 110.243 38.8728 110.245 38.8521C110.247 38.8079 110.253 38.7641 110.264 38.7212C110.393 38.6969 110.519 38.6652 110.644 38.6263C110.727 38.6057 110.804 38.5653 110.868 38.5085C110.889 38.4645 110.901 38.4166 110.904 38.3678C110.904 38.286 110.923 38.1747 110.933 38.0405C110.943 37.9063 110.949 37.746 110.953 37.5627C110.956 37.3795 110.953 37.1831 110.953 36.9704L110.969 34.5159V33.4556C110.969 33.4 110.969 33.3509 110.969 33.3051H110.81H110.605H110.102C109.895 33.2945 109.689 33.335 109.501 33.4229C109.332 33.538 109.209 33.7095 109.154 33.9072C109.111 33.9103 109.067 33.9103 109.024 33.9072H108.962H108.884L108.91 32.8633H109.141H109.465C109.579 32.8633 109.693 32.8633 109.79 32.8633H110.063H112.482H112.755C112.858 32.8633 112.966 32.8633 113.079 32.8633H113.404H113.667L113.696 33.9072Z" fill="#233E81"/>
<path d="M120.401 33.0236C120.4 33.0677 120.395 33.1116 120.385 33.1545C120.165 33.1687 119.953 33.2421 119.771 33.3673C119.742 33.4322 119.727 33.5023 119.726 33.5734C119.726 33.6945 119.706 33.8352 119.696 33.9891C119.687 34.1429 119.696 34.3163 119.696 34.4505C119.696 34.5847 119.696 34.709 119.696 34.7777L119.68 36.9769C119.68 37.1962 119.68 37.4122 119.68 37.6314C119.68 37.8507 119.68 38.0438 119.664 38.2271C119.648 38.4103 119.664 38.5543 119.641 38.6918C119.619 38.8292 119.625 38.9012 119.618 38.9437C119.46 39.0334 119.284 39.085 119.102 39.0943L115.914 34.7908C115.858 34.7202 115.807 34.6458 115.761 34.5683C115.709 34.4865 115.664 34.4112 115.615 34.349C115.587 34.3105 115.562 34.27 115.54 34.228L115.475 34.1101V34.4374C115.475 34.5258 115.475 34.6207 115.475 34.7254C115.475 34.8301 115.475 34.9185 115.475 34.9937L115.456 36.9573V37.2845C115.456 37.4449 115.456 37.6118 115.456 37.7918C115.456 37.9718 115.456 38.1191 115.475 38.2729C115.472 38.3602 115.491 38.4469 115.531 38.5249C115.709 38.6492 115.918 38.7227 116.135 38.7376C116.138 38.7812 116.138 38.8249 116.135 38.8685C116.136 38.8892 116.136 38.91 116.135 38.9307C116.135 38.9536 116.135 38.983 116.135 39.0125H115.725H115.609H115.394H115.18C115.044 39.0125 114.924 39.0125 114.82 39.0125C114.716 39.0125 114.605 39.0125 114.495 39.0125H114.222C114.222 38.983 114.222 38.9536 114.222 38.9307C114.221 38.91 114.221 38.8892 114.222 38.8685C114.219 38.8249 114.219 38.7812 114.222 38.7376C114.442 38.7234 114.654 38.65 114.836 38.5249C114.868 38.446 114.883 38.3613 114.881 38.2761C114.881 38.1289 114.901 37.9685 114.907 37.7885C114.914 37.6085 114.907 37.4351 114.907 37.2715C114.907 37.1078 114.907 36.9998 114.907 36.9442L114.927 34.8596V34.277C114.931 34.0791 114.92 33.8811 114.894 33.6847C114.887 33.5817 114.849 33.4832 114.786 33.4017C114.723 33.3201 114.638 33.2592 114.54 33.2265C114.453 33.1911 114.361 33.1669 114.268 33.1545C114.261 33.1344 114.261 33.1125 114.268 33.0924V33.0138C114.263 32.9692 114.263 32.9243 114.268 32.8797H114.427H114.677H114.933H115.089H115.443L118.641 37.2715C118.713 37.3729 118.774 37.4645 118.833 37.5529L118.976 37.7853L119.099 37.9947C119.099 37.926 119.099 37.854 119.099 37.7853V37.5725C119.099 37.4547 119.099 37.3304 119.099 37.1995C119.099 37.0686 119.099 36.9573 119.099 36.8722L119.125 34.7777C119.125 34.7025 119.125 34.5879 119.125 34.4505C119.125 34.313 119.125 34.1494 119.125 33.9956C119.125 33.8418 119.125 33.7076 119.102 33.5865C119.104 33.5188 119.094 33.4513 119.073 33.3869C118.893 33.262 118.684 33.1885 118.466 33.1742C118.457 33.131 118.452 33.0872 118.45 33.0433C118.448 33.0226 118.448 33.0018 118.45 32.9811C118.45 32.9582 118.45 32.9287 118.45 32.8993H118.742C118.781 32.9025 118.82 32.9025 118.859 32.8993H118.976C119.041 32.8993 119.112 32.8993 119.193 32.8993H119.407C119.541 32.8993 119.661 32.8993 119.765 32.8993C119.869 32.8993 119.979 32.8993 120.089 32.8993H120.362C120.362 32.9287 120.362 32.9582 120.362 32.9811C120.376 32.9944 120.389 33.0086 120.401 33.0236Z" fill="#233E81"/>
<path d="M125.398 39.0059H124.794H124.093H122.145H121.726H121.382H121.171C121.171 38.9765 121.171 38.947 121.171 38.9241C121.169 38.9034 121.169 38.8826 121.171 38.8619C121.171 38.8178 121.177 38.7739 121.187 38.731C121.315 38.7071 121.442 38.6754 121.567 38.6361C121.65 38.6163 121.727 38.5758 121.791 38.5183C121.827 38.4476 121.846 38.369 121.846 38.2892C121.846 38.1583 121.865 38.0143 121.872 37.8507C121.878 37.6871 121.872 37.5234 121.872 37.3696V36.9998L121.891 34.5159V34.1887C121.891 34.0643 121.891 33.9432 121.891 33.8254C121.891 33.7076 121.891 33.6029 121.872 33.4982C121.87 33.4407 121.855 33.3844 121.826 33.3345C121.762 33.2782 121.685 33.2389 121.602 33.22C121.501 33.1895 121.374 33.16 121.222 33.1316C121.212 33.0888 121.205 33.0449 121.203 33.0007C121.202 32.98 121.202 32.9593 121.203 32.9386C121.203 32.9156 121.203 32.8862 121.203 32.8567H121.378H121.505H121.966H122.219H124.411H124.752C124.869 32.8567 124.982 32.8567 125.096 32.8567C125.21 32.8567 125.297 32.8567 125.365 32.8567L125.391 33.9072C125.349 33.9197 125.306 33.9263 125.262 33.9269C125.215 33.9253 125.168 33.9187 125.122 33.9072C125.08 33.783 125.023 33.6644 124.953 33.5538C124.898 33.4685 124.821 33.4005 124.729 33.3574C124.627 33.3095 124.517 33.2807 124.404 33.2724C124.268 33.2724 124.102 33.2724 123.904 33.2724C123.489 33.2724 123.076 33.2724 122.667 33.2985V33.4818C122.667 33.5473 122.667 33.6127 122.667 33.6782C122.667 33.796 122.667 33.9301 122.667 34.0807C122.667 34.2312 122.667 34.3818 122.667 34.5356V35.6483H123.057H123.482C123.648 35.6483 123.791 35.6483 123.921 35.6286C124.033 35.6206 124.143 35.5917 124.245 35.5435C124.338 35.5006 124.416 35.4326 124.473 35.3472C124.539 35.2359 124.583 35.1125 124.602 34.9839C124.646 34.9724 124.691 34.9669 124.736 34.9676C124.783 34.9665 124.83 34.972 124.875 34.9839V35.2065C124.875 35.2686 124.875 35.357 124.875 35.465C124.875 35.573 124.875 35.7006 124.875 35.8413C124.875 35.9821 124.875 36.1064 124.875 36.2111C124.875 36.3159 124.875 36.4042 124.875 36.4697V36.6889C124.83 36.7019 124.783 36.7085 124.736 36.7086C124.691 36.708 124.646 36.7014 124.602 36.6889C124.583 36.5604 124.539 36.4369 124.473 36.3257C124.416 36.2403 124.338 36.1723 124.245 36.1293C124.143 36.0822 124.033 36.0535 123.921 36.0442C123.791 36.0442 123.648 36.0442 123.482 36.0442H123.057C122.914 36.0442 122.771 36.0442 122.632 36.0442V36.9998V37.8343C122.632 37.9849 122.632 38.1191 122.632 38.2369C122.63 38.3022 122.639 38.3674 122.658 38.4299C122.708 38.4736 122.768 38.504 122.833 38.5183C122.926 38.5441 123.022 38.5616 123.119 38.5707C123.226 38.5707 123.343 38.5936 123.466 38.5969C123.589 38.6001 123.71 38.5969 123.833 38.5969C124.008 38.5976 124.182 38.5888 124.356 38.5707C124.491 38.5568 124.623 38.5226 124.749 38.4692C124.861 38.4217 124.96 38.3476 125.038 38.2532C125.128 38.1398 125.198 38.0114 125.245 37.8736C125.289 37.8533 125.337 37.8443 125.385 37.8474C125.431 37.8435 125.477 37.8525 125.518 37.8736L125.398 39.0059Z" fill="#233E81"/>
<path d="M131.824 38.8717C131.823 38.9176 131.814 38.963 131.798 39.0059H131.661H131.466H131.268H131.122C130.975 39.0096 130.827 38.9942 130.684 38.9601C130.574 38.9279 130.474 38.867 130.395 38.7834C130.305 38.6882 130.22 38.5876 130.142 38.4823C130.031 38.3416 129.908 38.178 129.768 37.9882L129.336 37.3925C129.184 37.1831 129.041 36.9835 128.911 36.7904C128.781 36.5973 128.661 36.4271 128.56 36.2733C128.46 36.1195 128.385 36.0082 128.346 35.9461C128.344 35.8961 128.353 35.8462 128.372 35.8002C128.392 35.7542 128.422 35.7135 128.46 35.681C128.663 35.6521 128.862 35.6017 129.054 35.5304C129.229 35.4666 129.392 35.3749 129.538 35.2588C129.673 35.1529 129.783 35.019 129.862 34.8661C129.945 34.7055 129.986 34.5266 129.983 34.3458C129.988 34.1557 129.952 33.9667 129.875 33.7927C129.813 33.6506 129.716 33.5267 129.593 33.4327C129.468 33.3379 129.326 33.2699 129.174 33.2331C129.011 33.1903 128.843 33.1694 128.674 33.1709H128.499H128.307H128.122H127.982V33.5603C127.982 33.6782 127.982 33.8156 127.982 33.9727C127.982 34.1298 127.982 34.2999 127.982 34.4636L127.966 36.9377C127.966 36.9769 127.966 37.0751 127.966 37.2289C127.966 37.3827 127.966 37.5562 127.966 37.7198C127.966 37.8834 127.966 38.0471 127.966 38.1943C127.962 38.2811 127.979 38.3675 128.015 38.4463C128.195 38.5761 128.408 38.6531 128.629 38.6688C128.637 38.712 128.643 38.7558 128.645 38.7998C128.646 38.8204 128.646 38.8412 128.645 38.8619C128.645 38.8848 128.645 38.9143 128.645 38.9437H128.398H128.005H127.573H127.155H126.768H126.521C126.521 38.9143 126.521 38.8848 126.521 38.8619C126.521 38.839 126.521 38.8194 126.521 38.7998C126.518 38.7562 126.518 38.7124 126.521 38.6688C126.736 38.6537 126.942 38.5802 127.119 38.4561C127.156 38.3777 127.174 38.2912 127.171 38.2041C127.171 38.0601 127.193 37.8998 127.197 37.7263C127.2 37.5529 127.197 37.3991 127.197 37.2355V36.9377L127.223 34.4636V34.2116C127.223 34.0894 127.223 33.9651 127.223 33.8385C127.223 33.7142 127.223 33.5963 127.203 33.4916C127.204 33.4273 127.191 33.3635 127.164 33.3051C127.099 33.249 127.023 33.2077 126.94 33.184C126.836 33.1545 126.71 33.1218 126.557 33.0924C126.549 33.0492 126.543 33.0054 126.541 32.9615C126.539 32.9408 126.539 32.92 126.541 32.8993C126.541 32.8764 126.541 32.8469 126.541 32.8175H126.629C126.689 32.8206 126.75 32.8206 126.81 32.8175H126.917H127.038L127.502 32.7946L128.012 32.7684L128.492 32.7455H128.888C129.106 32.7466 129.323 32.763 129.538 32.7946C129.754 32.8234 129.964 32.8934 130.155 33.0007C130.344 33.1088 130.503 33.2643 130.616 33.4524C130.746 33.689 130.808 33.9577 130.794 34.228C130.8 34.425 130.764 34.621 130.691 34.8036C130.617 34.9861 130.506 35.1512 130.366 35.2883C130.043 35.5893 129.636 35.7834 129.2 35.8446C129.246 35.9232 129.317 36.0344 129.418 36.1719C129.518 36.3093 129.629 36.4729 129.742 36.6464L130.135 37.1929L130.531 37.7231L130.872 38.1551C130.944 38.2453 131.023 38.3305 131.106 38.4103C131.19 38.4859 131.281 38.5528 131.379 38.6099C131.455 38.6563 131.543 38.6822 131.632 38.6852H131.762C131.771 38.7049 131.778 38.7258 131.781 38.7474C131.799 38.7875 131.813 38.8291 131.824 38.8717Z" fill="#233E81"/>
<path d="M135.665 37.3958C135.672 37.6742 135.595 37.9484 135.444 38.1812C135.302 38.398 135.116 38.5821 134.898 38.7212C134.675 38.8686 134.429 38.979 134.171 39.0485C133.926 39.1138 133.674 39.1479 133.421 39.1499C133.262 39.1499 133.096 39.1499 132.895 39.127C132.675 39.1082 132.458 39.0687 132.246 39.0092L132.203 37.9587C132.22 37.9391 132.268 37.9292 132.343 37.9292C132.389 37.9263 132.435 37.9365 132.476 37.9587C132.515 38.0964 132.58 38.2253 132.668 38.3383C132.744 38.4332 132.838 38.5122 132.944 38.5707C133.046 38.6259 133.155 38.6666 133.268 38.6918C133.389 38.7139 133.512 38.7248 133.635 38.7245C133.77 38.7246 133.905 38.7114 134.038 38.6852C134.159 38.6639 134.277 38.6276 134.389 38.5772C134.526 38.4761 134.637 38.3438 134.713 38.1911C134.801 38.0147 134.845 37.8191 134.84 37.6216C134.848 37.3883 134.781 37.1585 134.648 36.9671C134.514 36.7848 134.351 36.6266 134.165 36.4991C133.966 36.358 133.759 36.2291 133.544 36.113C133.326 35.9957 133.118 35.8611 132.921 35.7104C132.732 35.5672 132.568 35.3923 132.437 35.1934C132.304 34.9753 132.238 34.7227 132.246 34.4669C132.239 34.1943 132.308 33.9254 132.447 33.6912C132.58 33.48 132.756 33.2994 132.963 33.1611C133.179 33.0219 133.416 32.9181 133.665 32.8535C133.911 32.7869 134.166 32.7528 134.421 32.752C134.577 32.752 134.746 32.752 134.924 32.7749C135.144 32.7939 135.361 32.8334 135.574 32.8927L135.59 33.9105C135.546 33.9306 135.498 33.9395 135.45 33.9367H135.376C135.355 33.9367 135.334 33.9298 135.317 33.9171C135.299 33.7953 135.253 33.6795 135.182 33.5789C135.112 33.4783 135.019 33.3957 134.911 33.3378C134.688 33.2311 134.444 33.1784 134.197 33.184C134.08 33.184 133.963 33.1906 133.846 33.2036C133.734 33.2173 133.624 33.2494 133.522 33.2985C133.39 33.3918 133.279 33.5123 133.197 33.652C133.112 33.8174 133.072 34.0025 133.08 34.1887C133.068 34.4225 133.135 34.6535 133.272 34.8432C133.409 35.018 133.572 35.1703 133.755 35.2948C133.955 35.4305 134.162 35.554 134.376 35.6646C134.596 35.7772 134.804 35.9109 134.999 36.0639C135.192 36.2145 135.356 36.3998 135.483 36.6104C135.61 36.8517 135.673 37.1225 135.665 37.3958Z" fill="#233E81"/>
</svg>
