<svg width="139" height="43" viewBox="0 0 139 43" fill="none" xmlns="http://www.w3.org/2000/svg">
<path d="M22.5 2.22998L41.9856 12.1157V31.8872L22.5 41.7729L3.01443 31.8872V12.1157L22.5 2.22998Z" fill="white"/>
<path d="M22.4906 42.6143L1 32.097V11.0647L22.4906 0.547363L43.9839 11.0647V32.097L22.4906 42.6143ZM2.9127 31.1665L22.4906 40.7463L42.0712 31.1665V11.9999L22.4906 2.41774L2.9127 11.9999V31.1665Z" fill="#B8824F"/>
<path d="M27.6434 18.4795C27.6399 18.5533 27.6229 18.6261 27.593 18.6955C27.5369 18.6955 27.4473 18.6955 27.3297 18.6955L26.9461 18.7097L26.5624 18.724H26.2824C25.9997 18.7308 25.7172 18.706 25.4422 18.6504C25.2295 18.597 25.0366 18.4981 24.8821 18.3632C24.7074 18.2072 24.5428 18.0431 24.3893 17.8718C24.1708 17.6345 23.93 17.371 23.6639 17.0625L22.8238 16.0893C22.5298 15.7475 22.2637 15.4199 21.9837 15.1066C21.7036 14.7933 21.502 14.5132 21.3032 14.2616C21.1043 14.01 20.9615 13.8391 20.8831 13.7299C20.8891 13.6435 20.9118 13.5585 20.9503 13.4783C20.9889 13.4111 21.041 13.35 21.1043 13.298C21.499 13.255 21.8868 13.1754 22.2609 13.0606C22.5993 12.9566 22.916 12.8076 23.1991 12.6191C23.4572 12.444 23.669 12.2248 23.8208 11.9759C23.9779 11.7127 24.0567 11.421 24.0504 11.1261C24.0619 10.8164 23.992 10.5083 23.846 10.2242C23.7196 9.99041 23.5272 9.78661 23.2859 9.63077C23.0441 9.47808 22.7691 9.36756 22.4766 9.30559C22.1598 9.23804 21.8342 9.20454 21.5076 9.2059H21.166L20.7907 9.22014C20.6675 9.22014 20.5471 9.23201 20.435 9.24151C20.323 9.251 20.2306 9.26049 20.155 9.26999L20.1214 9.90611C20.1214 10.0984 20.1018 10.3215 20.0962 10.5778C20.0906 10.8342 20.0962 11.1 20.0962 11.3777L20.0626 15.4128C20.0626 15.4793 20.0626 15.6375 20.0626 15.8875C20.0626 16.1249 20.0626 16.405 20.0626 16.6874C20.0626 16.9699 20.0794 17.231 20.0962 17.4683C20.0872 17.6095 20.1189 17.7505 20.1886 17.879C20.3706 18.0332 20.7683 18.1519 21.3816 18.2397C21.4002 18.3108 21.4115 18.3831 21.4152 18.4557C21.4176 18.4897 21.4176 18.5238 21.4152 18.5578C21.4152 18.5958 21.4068 18.6385 21.39 18.686H20.9139C20.6983 18.686 20.4434 18.686 20.1466 18.6717C19.8497 18.6575 19.5865 18.6575 19.3065 18.6575C19.0264 18.6575 18.7744 18.6575 18.4887 18.6717C18.2031 18.686 17.9567 18.686 17.741 18.686H17.2425C17.2313 18.6385 17.2229 18.5958 17.2173 18.5578C17.2149 18.5238 17.2149 18.4897 17.2173 18.4557C17.2211 18.3831 17.2323 18.3108 17.2509 18.2397C17.853 18.1519 18.2395 18.038 18.4103 17.8932C18.4817 17.765 18.5163 17.6243 18.5111 17.4826C18.5363 17.2452 18.5531 16.9865 18.5643 16.7017C18.5755 16.4168 18.5811 16.151 18.5811 15.9018V15.4199L18.6316 11.3848V10.9671C18.6316 10.7701 18.6316 10.5683 18.6148 10.3595C18.598 10.1506 18.5895 9.96307 18.5727 9.7898C18.5755 9.68468 18.5487 9.58052 18.4943 9.48598C18.369 9.39402 18.2205 9.32746 18.0603 9.29135C17.8614 9.23913 17.615 9.18929 17.321 9.13944C17.302 9.06847 17.2907 8.99617 17.2873 8.92345C17.285 8.89025 17.285 8.85695 17.2873 8.82376C17.2873 8.7834 17.2873 8.74068 17.3125 8.69321H17.559C17.6654 8.69321 17.783 8.69321 17.909 8.67897H18.1219C18.2025 8.67912 18.2829 8.67436 18.3627 8.66473L19.2645 8.62912L20.253 8.58402L21.1884 8.54842C21.4852 8.54842 21.7484 8.53418 21.9557 8.53418C22.3858 8.53479 22.8153 8.56096 23.2411 8.61251C23.6628 8.66201 24.0701 8.77708 24.4425 8.95193C24.8101 9.12889 25.1178 9.38311 25.3358 9.69011C25.5901 10.0774 25.7113 10.5173 25.6859 10.96C25.695 11.282 25.625 11.6021 25.4804 11.9C25.3357 12.1979 25.1196 12.467 24.8457 12.6903C24.2192 13.1817 23.4309 13.4996 22.5858 13.6018C22.6754 13.7252 22.8182 13.9056 23.0114 14.1429C23.2047 14.3803 23.4231 14.639 23.6667 14.9215C23.9104 15.2039 24.1652 15.5006 24.4341 15.8092C24.7029 16.1178 24.9549 16.4073 25.1986 16.6756C25.4422 16.9438 25.6663 17.1811 25.8651 17.3876C26.0037 17.5356 26.1544 17.6752 26.316 17.8054C26.4781 17.9286 26.6545 18.0375 26.8424 18.1306C26.9919 18.208 27.1629 18.2506 27.3381 18.254H27.6042C27.6203 18.2867 27.6315 18.321 27.6378 18.3561C27.6442 18.397 27.6461 18.4383 27.6434 18.4795Z" fill="#243D81"/>
<path d="M21.5552 24.8809C21.5516 24.9536 21.5404 25.0259 21.5216 25.0969C21.2248 25.1468 20.9783 25.1943 20.7795 25.2417C20.6189 25.2733 20.4699 25.3377 20.3454 25.4292C20.2972 25.4966 20.2711 25.5736 20.2698 25.6524C20.253 25.7742 20.239 25.9237 20.2278 26.101C20.2166 26.2782 20.2082 26.4728 20.2026 26.6849C20.2026 26.8985 20.2026 27.105 20.2026 27.3067L20.1662 31.3418V32.042C20.1662 32.315 20.1662 32.5808 20.1662 32.8348C20.1662 33.0888 20.1858 33.3095 20.211 33.5137C20.2088 33.6369 20.2435 33.7585 20.3118 33.8673C20.4376 33.9643 20.5895 34.0336 20.7543 34.0691C20.9475 34.1165 21.18 34.1664 21.4544 34.2139C21.4732 34.2849 21.4844 34.3571 21.488 34.4299C21.4903 34.4638 21.4903 34.4979 21.488 34.5319C21.488 34.5699 21.4796 34.6126 21.4628 34.6601H20.9755C20.7608 34.6601 20.5088 34.6553 20.2194 34.6459C19.9394 34.6459 19.6593 34.6316 19.3933 34.6316C19.1272 34.6316 18.8584 34.6316 18.5756 34.6459C18.2927 34.6601 18.0407 34.6601 17.825 34.6601H17.349C17.3378 34.6126 17.3294 34.5699 17.3238 34.5319C17.3214 34.4979 17.3214 34.4638 17.3238 34.4299C17.3273 34.3571 17.3386 34.2849 17.3574 34.2139C17.6069 34.1748 17.8537 34.1241 18.0967 34.0619C18.258 34.0263 18.4074 33.9597 18.5335 33.8673C18.5878 33.7653 18.6137 33.654 18.6092 33.5421C18.626 33.3546 18.6428 33.1315 18.6596 32.8704C18.6764 32.6093 18.6876 32.3411 18.6932 32.0634C18.6988 31.7857 18.6932 31.5436 18.6932 31.3513L18.7268 27.3162C18.7268 27.105 18.7268 26.8914 18.7268 26.6801C18.7268 26.4689 18.7128 26.2766 18.7016 26.1033C18.6937 25.9579 18.6769 25.8129 18.6512 25.669C18.645 25.5921 18.6161 25.5178 18.5672 25.453C18.4417 25.3571 18.2894 25.2901 18.1247 25.2583C17.9315 25.2156 17.6962 25.1705 17.4246 25.1207C17.4058 25.0497 17.3945 24.9774 17.391 24.9047C17.3886 24.8715 17.3886 24.8382 17.391 24.805C17.391 24.7646 17.391 24.7219 17.4162 24.6744H17.8922C18.1079 24.6744 18.3627 24.6744 18.6512 24.6887C18.9396 24.7029 19.2113 24.7029 19.4913 24.7029C19.7713 24.7029 20.0262 24.7029 20.309 24.6887C20.5919 24.6744 20.8439 24.6744 21.0595 24.6744H21.5356C21.5356 24.7219 21.5552 24.7646 21.5608 24.805C21.5603 24.8304 21.5585 24.8557 21.5552 24.8809ZM27.551 34.4227C27.5533 34.4567 27.5533 34.4908 27.551 34.5248C27.551 34.5628 27.5426 34.6055 27.5258 34.653H27.2457L26.8705 34.6672L26.4616 34.6838H26.0891C25.815 34.69 25.5416 34.6579 25.2798 34.5889C25.1064 34.5446 24.9467 34.4684 24.8121 34.3658C24.687 34.2597 24.5003 34.0794 24.252 33.8246C24.0084 33.5682 23.7368 33.2787 23.4427 32.9511C23.1487 32.6236 22.8406 32.2794 22.5242 31.9186C22.2077 31.5578 21.9109 31.2184 21.6364 30.9003L20.9307 30.072C20.7319 29.8346 20.5975 29.6732 20.5303 29.5972L23.5799 26.6374C23.8292 26.4 24.0476 26.1627 24.2352 25.9657C24.3731 25.8431 24.4698 25.6915 24.5153 25.5266C24.5151 25.4598 24.4905 25.3947 24.4448 25.3403C24.3992 25.2859 24.3348 25.2448 24.2604 25.2227C24.077 25.1526 23.8811 25.1085 23.6808 25.0922C23.6591 25.0216 23.6478 24.9491 23.6471 24.8762C23.6465 24.7962 23.6578 24.7164 23.6808 24.6388H24.2772H24.5741C24.7048 24.6388 24.8476 24.6388 25.0026 24.6388H25.4702H25.8959C26.1237 24.6388 26.3421 24.6341 26.5512 24.6246C26.7612 24.6246 26.9293 24.6104 27.0525 24.6104H27.4445C27.4592 24.6378 27.4704 24.6664 27.4781 24.6958C27.4907 24.7385 27.4973 24.7823 27.4978 24.8263C27.4971 24.8727 27.4905 24.9189 27.4781 24.964C27.4711 24.9958 27.4598 25.0269 27.4445 25.0566C27.2177 25.0969 27.0301 25.1325 26.8845 25.1658C26.7159 25.208 26.5569 25.2738 26.414 25.3604C26.2052 25.4905 26.0094 25.635 25.8287 25.7924C25.5991 25.987 25.2938 26.2671 24.9073 26.6018L22.0649 29.2673C22.1349 29.3433 22.2581 29.4881 22.4402 29.6993C22.6222 29.9106 22.8406 30.174 23.0955 30.4517C23.3503 30.7294 23.6275 31.0499 23.9216 31.3822C24.2156 31.7145 24.5097 32.0373 24.8009 32.3482C25.0922 32.6592 25.361 32.9487 25.6187 33.2075C25.8763 33.4662 26.0863 33.6703 26.2572 33.8151C26.3982 33.9335 26.562 34.0306 26.7416 34.1023C26.9299 34.1803 27.137 34.2202 27.3465 34.2186H27.5174C27.5353 34.2857 27.5466 34.354 27.551 34.4227Z" fill="#243D81"/>
<path d="M28.8308 21.5083H16.0356V21.8833H28.8308V21.5083Z" fill="#243D81"/>
<path d="M59.1343 20.3144C59.1372 20.354 59.1372 20.3936 59.1343 20.4331C59.1277 20.4679 59.1174 20.502 59.1035 20.5352L58.5434 20.547H57.8993C57.7094 20.5541 57.5195 20.5316 57.3392 20.4806C57.1847 20.4268 57.0454 20.3459 56.9303 20.2432C56.8767 20.1993 56.8297 20.1498 56.7903 20.0961C56.7259 20.013 56.6503 19.9109 56.5635 19.7875L56.2834 19.384C56.1789 19.2368 56.0753 19.0873 55.9726 18.9354C55.7318 18.5794 55.4629 18.183 55.1661 17.7486C55.1668 17.6751 55.1877 17.6028 55.2271 17.5373C55.2664 17.4718 55.3232 17.4149 55.3929 17.3712C55.5945 17.3327 55.7907 17.2762 55.9782 17.2027C56.1506 17.1397 56.3095 17.0531 56.4487 16.9463C56.5709 16.8395 56.6662 16.7127 56.7287 16.5737C56.8053 16.409 56.8424 16.2331 56.8379 16.0562C56.8495 15.9141 56.8251 15.7714 56.7661 15.6379C56.7072 15.5045 56.6151 15.3833 56.4962 15.2825C56.3773 15.1817 56.2343 15.1037 56.0769 15.0537C55.9194 15.0038 55.7511 14.983 55.5833 14.9929C55.5413 14.9929 55.4797 14.9929 55.3929 14.9929H55.1269C55.0373 14.9929 54.9532 14.9929 54.8692 15.0071H54.6928C54.6928 15.1187 54.6928 15.2445 54.6928 15.3489C54.6928 15.4533 54.6928 15.5602 54.6928 15.6836V16.0349L54.662 18.7479C54.662 18.8594 54.662 18.971 54.662 19.0849C54.662 19.1989 54.662 19.308 54.6844 19.4101C54.6918 19.5056 54.7106 19.6002 54.7404 19.6926C54.76 19.7641 54.8038 19.8293 54.8664 19.8801C54.919 19.9263 54.9772 19.9677 55.0401 20.0035C55.136 20.0468 55.2423 20.0712 55.3509 20.0747C55.3664 20.1066 55.3768 20.1401 55.3817 20.1744C55.3966 20.253 55.3966 20.3331 55.3817 20.4118C55.3764 20.4467 55.3661 20.481 55.3509 20.5138H55.0709C54.886 20.5138 54.6788 20.5138 54.4548 20.5138C54.2307 20.5138 54.0487 20.5138 53.9115 20.5138C53.7743 20.5138 53.581 20.5138 53.3766 20.5138C53.1722 20.5138 52.9845 20.5138 52.8165 20.5138H52.402C52.3868 20.481 52.3765 20.4467 52.3712 20.4118C52.3563 20.3331 52.3563 20.253 52.3712 20.1744C52.3761 20.1401 52.3865 20.1066 52.402 20.0747C52.6223 20.0702 52.8339 20.0014 53.0013 19.8801C53.0578 19.8261 53.0989 19.762 53.1218 19.6926C53.1535 19.6004 53.1741 19.5058 53.1834 19.4101C53.1834 19.308 53.2002 19.1989 53.203 19.0849C53.2058 18.971 53.203 18.8476 53.203 18.7479L53.2254 16.061C53.2254 15.8379 53.2254 15.629 53.2254 15.4367C53.2345 15.2834 53.1755 15.1326 53.0601 15.0142C52.9945 14.963 52.9187 14.922 52.8361 14.8932C52.7228 14.8535 52.6027 14.8294 52.4805 14.822C52.4652 14.789 52.454 14.7548 52.4468 14.7199C52.4439 14.6804 52.4439 14.6408 52.4468 14.6012C52.444 14.5262 52.4613 14.4515 52.4973 14.3829H53.0573L53.8135 14.3662L54.69 14.3473L55.5301 14.3306H56.1378C56.4336 14.3289 56.7287 14.356 57.0172 14.4113C57.2788 14.4579 57.5271 14.5474 57.7481 14.6748C57.9589 14.7955 58.1311 14.9586 58.2494 15.1495C58.3821 15.3755 58.4466 15.6259 58.437 15.8782C58.4383 16.0796 58.3946 16.2793 58.3082 16.4669C58.2228 16.6462 58.1016 16.8116 57.9497 16.9558C57.7948 17.1007 57.6132 17.2234 57.412 17.319C57.204 17.4224 56.9809 17.5022 56.7483 17.5563C57.0284 17.9598 57.2888 18.3278 57.524 18.6553L57.7901 19.0612L58.0701 19.4433C58.1569 19.562 58.2326 19.6617 58.2998 19.7424C58.3411 19.8006 58.3909 19.854 58.4482 19.9014C58.5103 19.9588 58.5855 20.0048 58.6693 20.0366C58.7531 20.0684 58.8437 20.0854 58.9355 20.0866H59.0923C59.1065 20.1188 59.1169 20.1522 59.1231 20.1863C59.1302 20.2287 59.134 20.2715 59.1343 20.3144Z" fill="white"/>
<path d="M67.0091 17.3115C67.0136 17.7664 66.9078 18.2172 66.6983 18.636C66.5016 19.0344 66.2164 19.397 65.8581 19.7041C65.4978 20.0098 65.0695 20.2518 64.598 20.4162C64.1048 20.587 63.5765 20.6733 63.0437 20.6701C62.5639 20.6772 62.0875 20.6012 61.6435 20.447C61.2457 20.3048 60.8886 20.0919 60.5961 19.8228C60.3038 19.5478 60.0816 19.2245 59.9436 18.8733C59.7913 18.4781 59.7165 18.0643 59.7224 17.6486C59.7151 17.1801 59.8189 16.7152 60.0276 16.2814C60.218 15.8837 60.5023 15.5232 60.863 15.2219C61.2237 14.9207 61.6532 14.6851 62.1252 14.5297C62.6206 14.3671 63.1482 14.2865 63.6794 14.2923C64.1588 14.2864 64.6348 14.3614 65.0796 14.5131C65.4788 14.6509 65.8366 14.8626 66.127 15.1326C66.4179 15.4084 66.6399 15.7314 66.7795 16.082C66.9351 16.4784 67.0126 16.8938 67.0091 17.3115ZM65.4633 17.4065C65.4645 17.1042 65.4174 16.8032 65.3233 16.5116C65.2367 16.236 65.0966 15.9745 64.9088 15.7378C64.7302 15.5084 64.4928 15.3161 64.2143 15.1753C63.9184 15.028 63.58 14.9532 63.2369 14.9593C63.0332 14.9626 62.8309 14.9882 62.6348 15.0353C62.4567 15.0703 62.2859 15.128 62.128 15.2061C61.8608 15.4847 61.6507 15.7992 61.5063 16.1366C61.3231 16.5948 61.2387 17.0772 61.257 17.5607C61.2562 17.8658 61.3013 18.1697 61.3914 18.4651C61.4748 18.7439 61.615 19.0082 61.8059 19.246C61.9913 19.461 62.2279 19.6405 62.5004 19.7729C62.7959 19.9186 63.1333 19.9917 63.475 19.9842C63.6795 19.9816 63.8828 19.9569 64.0799 19.9106C64.2599 19.8758 64.4327 19.8182 64.5924 19.7397C64.7224 19.611 64.8386 19.4728 64.9396 19.3267C65.0546 19.1657 65.1485 18.9946 65.2196 18.8164C65.3022 18.6109 65.3632 18.3996 65.4017 18.185C65.4469 17.9249 65.4675 17.6622 65.4633 17.3993V17.4065Z" fill="white"/>
<path d="M75.4217 17.3115C75.4261 17.7664 75.3203 18.2172 75.1108 18.636C74.9141 19.0344 74.6289 19.397 74.2707 19.7041C73.9109 20.0092 73.4836 20.2512 73.0133 20.4162C72.5199 20.5865 71.9918 20.6728 71.459 20.6701C70.9793 20.6771 70.5028 20.6012 70.0588 20.447C69.6619 20.3048 69.3057 20.0919 69.0143 19.8228C68.721 19.5483 68.4987 19.2249 68.3617 18.8733C68.2084 18.4782 68.1328 18.0645 68.1377 17.6486C68.1319 17.1802 68.2356 16.7155 68.443 16.2814C68.6334 15.8833 68.918 15.5225 69.2792 15.2213C69.6404 14.92 70.0706 14.6846 70.5433 14.5297C71.0386 14.3667 71.5663 14.2861 72.0975 14.2923C72.5769 14.2866 73.0529 14.3616 73.4978 14.5131C73.8961 14.651 74.253 14.8626 74.5423 15.1326C74.8341 15.4083 75.057 15.7313 75.1976 16.082C75.3512 16.4787 75.4269 16.894 75.4217 17.3115ZM73.8786 17.4065C73.8785 17.1043 73.8314 16.8034 73.7386 16.5116C73.6497 16.2367 73.5098 15.9755 73.3241 15.7378C73.1448 15.5089 72.9076 15.3167 72.6296 15.1753C72.3325 15.0283 71.9934 14.9535 71.6495 14.9593C71.4467 14.9625 71.2452 14.988 71.0502 15.0353C70.8712 15.0704 70.6994 15.128 70.5405 15.2062C70.2734 15.4847 70.0632 15.7992 69.9188 16.1366C69.7357 16.5948 69.6512 17.0772 69.6696 17.5607C69.6682 17.866 69.7144 18.1701 69.8068 18.4651C69.8889 18.7442 70.0293 19.0087 70.2212 19.246C70.4058 19.4607 70.6414 19.6402 70.9129 19.7729C71.2084 19.9186 71.5458 19.9917 71.8875 19.9842C72.0929 19.9814 72.2971 19.9567 72.4952 19.9106C72.6752 19.8758 72.848 19.8182 73.0077 19.7397C73.1367 19.6104 73.2529 19.4723 73.3549 19.3267C73.4688 19.1652 73.5626 18.9942 73.635 18.8164C73.7162 18.6106 73.7771 18.3994 73.817 18.185C73.8622 17.9249 73.8828 17.6622 73.8786 17.3993V17.4065Z" fill="white"/>
<path d="M81.619 15.7052C81.5781 15.7173 81.5359 15.726 81.493 15.7313C81.4445 15.7338 81.3959 15.7338 81.3474 15.7313C81.2634 15.7348 81.1795 15.7235 81.1009 15.6981C81.0751 15.5751 81.0259 15.4565 80.9553 15.3468C80.9011 15.2646 80.8205 15.1972 80.7229 15.1522C80.6164 15.1091 80.5016 15.0825 80.384 15.0739C80.2296 15.0606 80.0744 15.0543 79.9191 15.0549H79.7847C79.74 15.0571 79.6951 15.0571 79.6503 15.0549C79.5981 15.0586 79.5457 15.0586 79.4935 15.0549C79.4935 15.1427 79.4935 15.24 79.4935 15.3445C79.4935 15.4489 79.4935 15.5296 79.4935 15.6388V15.9758L79.4627 18.7339C79.4627 18.8455 79.4627 18.957 79.4627 19.0733C79.4664 19.183 79.4776 19.2924 79.4963 19.4009C79.5108 19.4978 79.5333 19.5938 79.5635 19.6881C79.581 19.7598 79.624 19.8252 79.6867 19.8756C79.8549 19.9975 80.0676 20.0663 80.2888 20.0702C80.3018 20.1028 80.312 20.1361 80.3196 20.1699C80.3308 20.2488 80.3308 20.3285 80.3196 20.4073C80.3117 20.4418 80.3014 20.4759 80.2888 20.5094H80.0088C79.8211 20.5094 79.6391 20.5094 79.4487 20.5094C79.2582 20.5094 79.0342 20.5094 78.743 20.5094C78.4517 20.5094 78.2165 20.5094 78.0176 20.5094C77.8188 20.5094 77.6312 20.5094 77.4576 20.5094H77.2083C77.1944 20.4762 77.1841 20.442 77.1775 20.4073C77.1663 20.3285 77.1663 20.2488 77.1775 20.1699C77.1838 20.1359 77.1941 20.1025 77.2083 20.0702C77.4295 20.0663 77.6423 19.9975 77.8104 19.8756C77.9304 19.7475 77.9947 19.5882 77.9924 19.4246C78.0092 19.211 78.0176 18.9832 78.0176 18.7434L78.0373 15.9758C78.0373 15.8595 78.0373 15.7385 78.0373 15.6388C78.0373 15.5391 78.0373 15.4323 78.0373 15.3445C78.0373 15.2566 78.0373 15.1427 78.0373 15.0549C77.9851 15.0586 77.9326 15.0586 77.8804 15.0549C77.8347 15.0571 77.7889 15.0571 77.7432 15.0549H77.6116C77.4563 15.0543 77.3012 15.0606 77.1467 15.0739C77.0282 15.0825 76.9125 15.1091 76.8051 15.1522C76.7036 15.196 76.619 15.2636 76.5614 15.3468C76.4846 15.4555 76.4297 15.5742 76.399 15.6981C76.3204 15.7235 76.2365 15.7348 76.1526 15.7313C76.1041 15.7338 76.0554 15.7338 76.0069 15.7313C75.964 15.7263 75.9218 15.7175 75.8809 15.7052L75.9229 14.395H76.161H76.4634H76.7687H80.7873H81.0925H81.395H81.633L81.619 15.7052Z" fill="white"/>
<path d="M89.4939 14.6229C89.4969 14.6624 89.4969 14.702 89.4939 14.7416C89.4876 14.7764 89.4773 14.8106 89.4631 14.8436C89.2425 14.8481 89.0302 14.9159 88.861 15.0359C88.7443 15.1537 88.6852 15.3048 88.6957 15.4584C88.6957 15.6506 88.6957 15.8595 88.6957 16.0826L88.6537 18.7695C88.6537 18.8811 88.6537 18.9926 88.6537 19.1066C88.6537 19.2205 88.6537 19.3297 88.6733 19.4318C88.6831 19.5272 88.7027 19.6217 88.7321 19.7142C88.7508 19.7856 88.7936 19.8507 88.8554 19.9017C88.9214 19.9543 88.9983 19.9962 89.0822 20.0252C89.1985 20.0645 89.3213 20.0886 89.4462 20.0964C89.4618 20.1283 89.4721 20.1618 89.4771 20.196C89.492 20.2747 89.492 20.3548 89.4771 20.4334C89.4718 20.4684 89.4614 20.5027 89.4462 20.5355H89.0738C88.8862 20.5355 88.6817 20.5355 88.4577 20.5355C88.2337 20.5355 88.0516 20.5355 87.9116 20.5355C87.7716 20.5355 87.584 20.5355 87.3795 20.5355C87.1751 20.5355 86.9875 20.5355 86.8194 20.5355H86.405C86.3911 20.5023 86.3808 20.4681 86.3742 20.4334C86.3592 20.3548 86.3592 20.2747 86.3742 20.196C86.3804 20.162 86.3907 20.1286 86.405 20.0964C86.626 20.0918 86.8386 20.0231 87.0071 19.9017C87.063 19.8478 87.1033 19.7836 87.1247 19.7142C87.1574 19.6221 87.1789 19.5275 87.1891 19.4318C87.1891 19.3297 87.2059 19.2205 87.2087 19.1066C87.2115 18.9926 87.2087 18.8692 87.2087 18.7695V17.7062H84.4923V18.7695C84.4923 18.8811 84.4923 18.9926 84.4923 19.1066C84.4923 19.2205 84.4923 19.3297 84.5147 19.4318C84.5221 19.5273 84.5409 19.6219 84.5707 19.7142C84.5905 19.7852 84.6331 19.8501 84.6939 19.9017C84.7605 19.9549 84.8384 19.9967 84.9235 20.0252C85.0389 20.0646 85.1608 20.0886 85.2848 20.0964C85.3003 20.1283 85.3107 20.1618 85.3156 20.196C85.3306 20.2747 85.3306 20.3548 85.3156 20.4334C85.3103 20.4684 85.3 20.5027 85.2848 20.5355H84.9123C84.7275 20.5355 84.5203 20.5355 84.2962 20.5355C84.0722 20.5355 83.8902 20.5355 83.753 20.5355C83.6157 20.5355 83.4225 20.5355 83.2181 20.5355C83.0136 20.5355 82.826 20.5355 82.658 20.5355H82.2407C82.2259 20.5024 82.2146 20.4682 82.2071 20.4334C82.1959 20.3546 82.1959 20.2749 82.2071 20.196C82.2142 20.1619 82.2255 20.1285 82.2407 20.0964C82.461 20.0918 82.6726 20.0231 82.84 19.9017C82.8964 19.8478 82.9376 19.7837 82.9604 19.7142C82.9922 19.6221 83.0128 19.5274 83.022 19.4318C83.022 19.3297 83.0388 19.2205 83.0416 19.1066C83.0444 18.9926 83.0416 18.8692 83.0416 18.7695L83.0725 16.0826C83.0725 15.8595 83.0725 15.6506 83.0725 15.4584C83.0808 15.3047 83.0208 15.1539 82.9044 15.0359C82.8387 14.9836 82.7617 14.9425 82.6776 14.9148C82.5613 14.8754 82.4385 14.8514 82.3135 14.8436C82.2993 14.8106 82.289 14.7764 82.2827 14.7416C82.2798 14.702 82.2798 14.6624 82.2827 14.6229C82.2799 14.5834 82.2799 14.5437 82.2827 14.5042C82.289 14.4702 82.2993 14.4368 82.3135 14.4045H82.6888C82.8736 14.4045 83.0753 14.4045 83.2881 14.4045H83.8174H84.3354C84.5287 14.4045 84.7107 14.4045 84.8955 14.4045H85.2932C85.3087 14.4364 85.3191 14.4699 85.324 14.5042C85.3282 14.5437 85.3282 14.5834 85.324 14.6229C85.3284 14.6624 85.3284 14.7021 85.324 14.7416C85.3191 14.7766 85.3087 14.8109 85.2932 14.8436C85.0727 14.8485 84.8606 14.9162 84.6911 15.0359C84.5757 15.1543 84.5168 15.305 84.5259 15.4584C84.5259 15.6506 84.5259 15.8595 84.5259 16.0826V17.0487H87.2395V16.0826C87.2395 15.8595 87.2395 15.6506 87.2395 15.4584C87.2484 15.2997 87.1829 15.1444 87.0575 15.0264C86.9913 14.9746 86.9144 14.9335 86.8306 14.9053C86.7143 14.866 86.5915 14.8419 86.4666 14.8341C86.4511 14.8014 86.4407 14.7671 86.4358 14.7321C86.4314 14.6926 86.4314 14.6529 86.4358 14.6134C86.4316 14.5739 86.4316 14.5342 86.4358 14.4947C86.4407 14.4605 86.4511 14.4269 86.4666 14.395H86.839C87.0267 14.395 87.2255 14.395 87.4411 14.395H87.9704H88.4885C88.6817 14.395 88.8638 14.395 89.0486 14.395H89.4631C89.4773 14.4273 89.4876 14.4607 89.4939 14.4947C89.4971 14.5374 89.4971 14.5802 89.4939 14.6229Z" fill="white"/>
<path d="M95.512 20.5353H95.1396H94.6831H94.2126H91.7342C91.5326 20.5353 91.3254 20.5353 91.1125 20.5353C90.8997 20.5353 90.7065 20.5353 90.5524 20.5353H90.334C90.3191 20.5022 90.3079 20.468 90.3004 20.4332C90.2892 20.3544 90.2892 20.2747 90.3004 20.1958C90.3075 20.1617 90.3187 20.1283 90.334 20.0961C90.5542 20.0916 90.7659 20.0229 90.9333 19.9015C90.9897 19.8476 91.0309 19.7834 91.0537 19.714C91.0854 19.6218 91.1061 19.5272 91.1153 19.4315C91.1153 19.3295 91.1321 19.2203 91.1349 19.1064C91.1377 18.9924 91.1349 18.869 91.1349 18.7693L91.1741 16.0824C91.1741 15.9709 91.1741 15.8593 91.1741 15.7477C91.1741 15.6362 91.1573 15.5317 91.1461 15.4368C91.1338 15.3522 91.1161 15.2682 91.0929 15.1852C91.0812 15.1299 91.0522 15.0782 91.0089 15.0357C90.9432 14.9834 90.8661 14.9423 90.7821 14.9146C90.6666 14.8755 90.5448 14.8515 90.4208 14.8434C90.4056 14.8104 90.3943 14.7762 90.3872 14.7413C90.3843 14.7018 90.3843 14.6622 90.3872 14.6227C90.3844 14.5831 90.3844 14.5435 90.3872 14.504C90.3943 14.4699 90.4056 14.4364 90.4208 14.4043H90.7933C90.9109 14.4043 91.0733 14.4043 91.2581 14.4043H91.8182H94.8147H95.1676H95.4784H95.68L95.7108 15.7145C95.6709 15.7266 95.6296 15.7353 95.5876 15.7406H95.442C95.3571 15.744 95.2723 15.7327 95.1928 15.7074C95.1616 15.5839 95.1077 15.4654 95.0331 15.3561C94.9701 15.2708 94.8824 15.2005 94.7783 15.152C94.6646 15.1035 94.541 15.0737 94.4142 15.0642C94.277 15.0642 94.1174 15.0475 93.9382 15.0475H93.6833H93.3389H92.9636C92.8404 15.0475 92.7284 15.0475 92.6332 15.0475C92.6413 15.159 92.6413 15.2708 92.6332 15.3822C92.6332 15.5104 92.6332 15.6694 92.6332 15.8569V17.0247C92.7078 17.0247 92.7834 17.0247 92.86 17.0247H93.3361C93.4765 17.0254 93.6168 17.0183 93.7561 17.0034C93.8758 16.9912 93.9912 16.9581 94.095 16.906C94.1934 16.8535 94.2766 16.7829 94.3386 16.6995C94.4114 16.5939 94.4617 16.4782 94.487 16.3578C94.5279 16.3454 94.5701 16.3367 94.6131 16.3316C94.6606 16.3293 94.7083 16.3293 94.7559 16.3316C94.8411 16.3273 94.9263 16.3394 95.0051 16.3672V16.5168C95.0051 16.5809 95.0051 16.6758 95.0051 16.7969C95.0051 16.9179 94.9883 17.1007 94.9883 17.3333C94.9883 17.5659 94.9883 17.7724 95.0051 17.9124C95.0219 18.0525 95.0051 18.1498 95.0051 18.1854V18.3492C94.9657 18.3626 94.9242 18.3714 94.8819 18.3753C94.8335 18.3787 94.7847 18.3787 94.7363 18.3753C94.6511 18.3797 94.5658 18.3675 94.487 18.3397C94.4636 18.2173 94.4132 18.0998 94.3386 17.9931C94.2771 17.9126 94.1935 17.8458 94.095 17.7985C93.9884 17.7538 93.874 17.7241 93.7561 17.7107C93.6168 17.6958 93.4765 17.6886 93.3361 17.6893H92.9804C92.8516 17.6893 92.734 17.6893 92.622 17.7036V18.9141C92.622 19.0304 92.622 19.1515 92.622 19.2488C92.6239 19.344 92.6324 19.4391 92.6472 19.5336C92.6484 19.593 92.6742 19.6501 92.72 19.695C92.774 19.7333 92.8385 19.7595 92.9076 19.771C93.006 19.7929 93.1062 19.8087 93.2073 19.8184C93.3165 19.8184 93.4285 19.8398 93.5405 19.8445C93.6525 19.8493 93.7421 19.8445 93.8205 19.8445C94.0138 19.8445 94.1846 19.8445 94.3358 19.8327C94.4717 19.8254 94.6047 19.7964 94.7279 19.7472C94.8463 19.6992 94.9491 19.6275 95.0275 19.5384C95.1313 19.4171 95.2134 19.2835 95.2712 19.142C95.3135 19.1283 95.3577 19.1195 95.4028 19.1159C95.4522 19.1124 95.5018 19.1124 95.5512 19.1159C95.6364 19.1115 95.7217 19.1236 95.8005 19.1515L95.512 20.5353Z" fill="white"/>
<path d="M99.6454 17.751C99.6458 17.8916 99.6184 18.0312 99.5642 18.164C99.5077 18.1936 99.4487 18.2198 99.3878 18.2424C99.2982 18.278 99.1946 18.3112 99.077 18.3468C98.9576 18.383 98.8361 18.4139 98.7129 18.4394C98.6014 18.4645 98.4866 18.478 98.3713 18.4797H96.3521C96.3385 18.4428 96.331 18.4045 96.3297 18.3658V18.2424C96.3286 18.1016 96.357 17.9617 96.4137 17.8294C96.4697 17.7989 96.5287 17.7726 96.5902 17.751C96.6798 17.7146 96.7834 17.679 96.901 17.6442C97.0186 17.6094 97.1391 17.5785 97.2623 17.5516C97.3749 17.5274 97.4905 17.5146 97.6067 17.5137H99.6258C99.6388 17.5507 99.6454 17.589 99.6454 17.6276V17.751Z" fill="white"/>
<path d="M103.252 14.6229C103.257 14.6624 103.257 14.7021 103.252 14.7416C103.247 14.7766 103.237 14.8109 103.222 14.8436C103.002 14.8484 102.791 14.9162 102.622 15.0359C102.506 15.1539 102.446 15.3047 102.454 15.4584C102.454 15.6506 102.454 15.8595 102.454 16.0826L102.423 18.7695C102.423 18.8811 102.423 18.9926 102.423 19.1066C102.423 19.2205 102.423 19.3297 102.443 19.4318C102.452 19.5271 102.471 19.6216 102.499 19.7142C102.519 19.7858 102.562 19.8509 102.625 19.9017C102.691 19.9548 102.768 19.9967 102.852 20.0252C102.968 20.0645 103.091 20.0886 103.216 20.0964C103.229 20.129 103.239 20.1623 103.247 20.196C103.258 20.2749 103.258 20.3546 103.247 20.4334C103.239 20.4679 103.229 20.502 103.216 20.5355H102.841C102.656 20.5355 102.449 20.5355 102.225 20.5355C102.001 20.5355 101.819 20.5355 101.681 20.5355C101.544 20.5355 101.351 20.5355 101.149 20.5355C100.948 20.5355 100.754 20.5355 100.589 20.5355H100.175C100.16 20.5027 100.149 20.4684 100.144 20.4334C100.129 20.3548 100.129 20.2747 100.144 20.196C100.149 20.1618 100.159 20.1283 100.175 20.0964C100.395 20.0918 100.607 20.0231 100.774 19.9017C100.832 19.8486 100.873 19.7842 100.894 19.7142C100.926 19.6221 100.947 19.5274 100.956 19.4318C100.956 19.3297 100.973 19.2205 100.978 19.1066C100.984 18.9926 100.978 18.8692 100.978 18.7695L101.012 16.0826C101.012 15.8595 101.012 15.6506 101.012 15.4584C101.021 15.305 100.962 15.1543 100.847 15.0359C100.78 14.9836 100.702 14.9425 100.617 14.9148C100.502 14.8754 100.38 14.8514 100.256 14.8436C100.24 14.8109 100.23 14.7766 100.225 14.7416C100.221 14.7021 100.221 14.6624 100.225 14.6229C100.221 14.5834 100.221 14.5437 100.225 14.5042C100.23 14.4699 100.24 14.4364 100.256 14.4045H100.628C100.813 14.4045 101.015 14.4045 101.23 14.4045H101.757H102.275C102.468 14.4045 102.653 14.4045 102.835 14.4045H103.216C103.232 14.4364 103.242 14.4699 103.247 14.5042C103.253 14.5435 103.255 14.5833 103.252 14.6229ZM107.137 14.6063C107.14 14.6505 107.14 14.6949 107.137 14.7392C107.131 14.7748 107.12 14.8098 107.106 14.8436C106.943 14.8366 106.78 14.8543 106.624 14.8958C106.48 14.9367 106.346 14.9994 106.229 15.081C106.103 15.1676 105.986 15.2646 105.882 15.3706C105.773 15.4821 105.658 15.6079 105.54 15.7313L104.056 17.3549L105.008 18.4966L105.384 18.9357C105.507 19.0828 105.622 19.2181 105.731 19.3392L106.011 19.6572C106.066 19.72 106.126 19.7788 106.193 19.8329C106.301 19.931 106.437 20.0045 106.588 20.0465C106.743 20.0823 106.903 20.0991 107.064 20.0964C107.08 20.1298 107.09 20.165 107.095 20.2008C107.097 20.2419 107.097 20.2831 107.095 20.3242C107.099 20.3964 107.085 20.4685 107.053 20.5355L106.722 20.5473H106.442H106.162H105.848C105.596 20.5535 105.345 20.5295 105.101 20.4761C104.925 20.4313 104.765 20.3497 104.636 20.2388C104.558 20.1691 104.485 20.0954 104.417 20.018C104.328 19.9183 104.23 19.8044 104.121 19.6715L103.779 19.2466C103.658 19.0947 103.541 18.9428 103.423 18.7885C103.145 18.4325 102.847 18.0432 102.53 17.6207L104.056 15.9331C104.118 15.8571 104.185 15.7764 104.258 15.6957C104.331 15.615 104.398 15.5343 104.459 15.4584C104.518 15.3898 104.57 15.3176 104.616 15.2424C104.651 15.1934 104.672 15.1381 104.678 15.081C104.68 15.04 104.665 14.9996 104.636 14.9671C104.608 14.9371 104.573 14.9128 104.532 14.8958C104.488 14.8778 104.441 14.8643 104.392 14.8555C104.343 14.8481 104.294 14.8442 104.244 14.8436C104.22 14.7751 104.209 14.7038 104.213 14.6324C104.206 14.5518 104.22 14.4709 104.252 14.395H104.532H104.759H105.123C105.255 14.395 105.381 14.395 105.507 14.395H106.067C106.162 14.395 106.26 14.395 106.347 14.395H106.627H106.806H107.117C107.136 14.4641 107.143 14.5354 107.137 14.6063Z" fill="white"/>
<path d="M114.827 14.6227C114.831 14.6621 114.831 14.7019 114.827 14.7413C114.822 14.7764 114.811 14.8107 114.796 14.8434C114.575 14.8482 114.363 14.916 114.194 15.0357C114.08 15.1546 114.021 15.3049 114.029 15.4582C114.029 15.6504 114.029 15.8593 114.029 16.0824L113.995 18.7693C113.995 18.8809 113.995 18.9924 113.995 19.1064C113.995 19.2203 113.995 19.3295 114.017 19.4315C114.026 19.5269 114.045 19.6214 114.073 19.714C114.093 19.785 114.136 19.8499 114.197 19.9015C114.263 19.9546 114.341 19.9965 114.426 20.0249C114.542 20.0643 114.663 20.0884 114.787 20.0961C114.803 20.1283 114.814 20.1617 114.821 20.1958C114.832 20.2747 114.832 20.3544 114.821 20.4332C114.814 20.468 114.802 20.5022 114.787 20.5353H114.415C114.23 20.5353 114.023 20.5353 113.799 20.5353C113.575 20.5353 113.393 20.5353 113.256 20.5353C113.118 20.5353 112.925 20.5353 112.721 20.5353C112.516 20.5353 112.329 20.5353 112.161 20.5353H111.729C111.714 20.5024 111.704 20.4682 111.699 20.4332C111.684 20.3546 111.684 20.2744 111.699 20.1958C111.703 20.1616 111.714 20.128 111.729 20.0961C111.95 20.0916 112.161 20.0229 112.329 19.9015C112.385 19.8476 112.426 19.7834 112.449 19.714C112.481 19.6218 112.501 19.5272 112.511 19.4315C112.511 19.3295 112.527 19.2203 112.53 19.1064C112.533 18.9924 112.53 18.869 112.53 18.7693V17.7059H109.817V18.7693C109.817 18.8809 109.817 18.9924 109.817 19.1064C109.817 19.2203 109.817 19.3295 109.836 19.4315C109.847 19.5268 109.865 19.6212 109.892 19.714C109.912 19.7856 109.956 19.8507 110.018 19.9015C110.084 19.9541 110.161 19.996 110.245 20.0249C110.361 20.0643 110.484 20.0883 110.609 20.0961C110.623 20.1284 110.634 20.1618 110.64 20.1958C110.651 20.2747 110.651 20.3544 110.64 20.4332C110.633 20.4679 110.623 20.5021 110.609 20.5353H110.245C110.06 20.5353 109.856 20.5353 109.629 20.5353C109.402 20.5353 109.223 20.5353 109.086 20.5353C108.949 20.5353 108.755 20.5353 108.554 20.5353C108.352 20.5353 108.159 20.5353 107.994 20.5353H107.579C107.564 20.5024 107.554 20.4682 107.548 20.4332C107.533 20.3546 107.533 20.2744 107.548 20.1958C107.553 20.1616 107.564 20.128 107.579 20.0961C107.8 20.0916 108.013 20.0229 108.181 19.9015C108.237 19.8476 108.277 19.7834 108.299 19.714C108.332 19.6221 108.353 19.5274 108.36 19.4315C108.36 19.3295 108.377 19.2203 108.383 19.1064C108.388 18.9924 108.383 18.869 108.383 18.7693L108.414 16.0824C108.414 15.8593 108.414 15.6504 108.414 15.4582C108.423 15.3048 108.364 15.1541 108.248 15.0357C108.182 14.9833 108.104 14.9423 108.019 14.9146C107.904 14.875 107.782 14.8509 107.658 14.8434C107.642 14.8107 107.632 14.7764 107.627 14.7413C107.622 14.7019 107.622 14.6621 107.627 14.6227C107.623 14.5832 107.623 14.5435 107.627 14.504C107.632 14.4697 107.642 14.4362 107.658 14.4043H108.03C108.218 14.4043 108.416 14.4043 108.632 14.4043H109.159H109.677C109.87 14.4043 110.055 14.4043 110.237 14.4043H110.651C110.667 14.4362 110.677 14.4697 110.682 14.504C110.686 14.5435 110.686 14.5832 110.682 14.6227C110.686 14.6621 110.686 14.7019 110.682 14.7413C110.677 14.7764 110.667 14.8107 110.651 14.8434C110.432 14.8482 110.22 14.916 110.052 15.0357C109.935 15.1535 109.876 15.3046 109.887 15.4582C109.887 15.6504 109.887 15.8593 109.887 16.0824V17.0485H112.603V16.0824C112.603 15.8593 112.603 15.6504 112.603 15.4582C112.611 15.3045 112.551 15.1537 112.435 15.0357C112.37 14.9828 112.293 14.9416 112.208 14.9146C112.092 14.8752 111.969 14.8512 111.844 14.8434C111.831 14.81 111.821 14.7759 111.813 14.7413C111.81 14.7018 111.81 14.6622 111.813 14.6227C111.811 14.5831 111.811 14.5435 111.813 14.504C111.821 14.4702 111.831 14.4369 111.844 14.4043H112.177C112.362 14.4043 112.564 14.4043 112.777 14.4043H113.306H113.824C114.017 14.4043 114.199 14.4043 114.384 14.4043H114.799C114.814 14.4362 114.825 14.4697 114.829 14.504C114.833 14.5435 114.832 14.5833 114.827 14.6227Z" fill="white"/>
<path d="M122.897 20.3144C122.901 20.3523 122.901 20.3904 122.897 20.4283C122.893 20.4649 122.882 20.5007 122.867 20.5351H122.567H122.346C122.251 20.5351 122.15 20.5351 122.038 20.5351H121.702H121.396H121.055H120.64C120.503 20.5351 120.377 20.5351 120.262 20.5351H120.019H119.719C119.703 20.4993 119.693 20.4617 119.688 20.4236C119.685 20.3872 119.685 20.3507 119.688 20.3144C119.685 20.2764 119.685 20.2384 119.688 20.2004C119.69 20.1647 119.698 20.1294 119.713 20.096C119.775 20.096 119.848 20.0841 119.932 20.0604C120.013 20.0422 120.092 20.02 120.17 19.9939C120.241 19.9712 120.306 19.9365 120.36 19.8919C120.385 19.8748 120.404 19.8535 120.418 19.8293C120.431 19.8051 120.439 19.7786 120.439 19.7518C120.43 19.6148 120.401 19.4792 120.352 19.3483C120.29 19.1798 120.215 18.9614 120.117 18.698L119.971 18.3206H117.652L117.487 18.717C117.369 18.9923 117.28 19.2202 117.221 19.4005C117.175 19.5262 117.145 19.6561 117.134 19.7874C117.135 19.8125 117.144 19.837 117.159 19.8586C117.174 19.8801 117.195 19.8981 117.221 19.9109C117.284 19.9483 117.351 19.9794 117.423 20.0034C117.497 20.0283 117.574 20.0489 117.652 20.0651L117.829 20.096C117.843 20.1312 117.851 20.168 117.854 20.2052C117.854 20.2479 117.854 20.2859 117.854 20.3144C117.854 20.3429 117.854 20.388 117.854 20.4283C117.851 20.4646 117.842 20.5005 117.829 20.5351H117.568H117.336C117.221 20.5351 117.098 20.5351 116.963 20.5351H116.568H116.263C116.084 20.5351 115.913 20.5351 115.751 20.5351H115.373H115.112C115.096 20.4993 115.086 20.4617 115.081 20.4236C115.081 20.3808 115.081 20.3429 115.081 20.3144C115.079 20.2764 115.079 20.2384 115.081 20.2004C115.086 20.1646 115.096 20.1295 115.112 20.096L115.392 20.0367C115.52 20.0116 115.637 19.9556 115.728 19.8753C115.797 19.807 115.856 19.7321 115.905 19.6521C115.981 19.5382 116.057 19.4148 116.132 19.2819C116.21 19.1513 116.28 19.0255 116.344 18.9092C116.393 18.8265 116.437 18.7417 116.476 18.6552L118.515 14.3519L119.688 14.2285L121.615 18.7075C121.732 18.9875 121.839 19.2202 121.937 19.4005C122.023 19.571 122.145 19.7263 122.298 19.8586C122.379 19.9258 122.474 19.979 122.578 20.0153C122.668 20.0512 122.762 20.0783 122.858 20.096C122.875 20.1309 122.885 20.1677 122.889 20.2052C122.895 20.2413 122.898 20.2778 122.897 20.3144ZM119.117 16.1701C119.056 16.0221 119.007 15.8706 118.971 15.7168C118.938 15.5672 118.904 15.4462 118.879 15.3536C118.851 15.4462 118.812 15.5672 118.758 15.7168C118.705 15.8663 118.644 16.0229 118.568 16.1915L117.924 17.6678H119.697L119.117 16.1701Z" fill="white"/>
<path d="M129.966 20.3143C129.969 20.3538 129.969 20.3935 129.966 20.433C129.959 20.4677 129.949 20.5019 129.935 20.535L129.375 20.5469H128.731C128.541 20.554 128.351 20.5314 128.171 20.4805C128.016 20.4272 127.876 20.3463 127.762 20.2431C127.708 20.1991 127.661 20.1497 127.622 20.0959C127.557 20.0129 127.482 19.9108 127.395 19.7874L127.115 19.3839L126.804 18.9352C126.563 18.5792 126.292 18.1828 125.995 17.7485C125.996 17.6748 126.017 17.6023 126.057 17.5368C126.097 17.4713 126.154 17.4145 126.224 17.3711C126.426 17.3325 126.622 17.276 126.81 17.2025C126.977 17.1377 127.131 17.0503 127.266 16.9438C127.4 16.8404 127.507 16.7143 127.58 16.5735C127.656 16.4089 127.693 16.233 127.689 16.0561C127.701 15.9139 127.676 15.7713 127.617 15.6378C127.558 15.5043 127.466 15.3831 127.347 15.2823C127.228 15.1816 127.085 15.1036 126.928 15.0536C126.77 15.0037 126.602 14.9829 126.434 14.9927C126.392 14.9927 126.331 14.9927 126.244 14.9927H125.981C125.888 14.9927 125.804 14.9927 125.72 15.007H125.544C125.544 15.1185 125.544 15.2443 125.544 15.3488C125.544 15.4532 125.544 15.56 125.544 15.6834V16.0347L125.51 18.7477C125.51 18.8593 125.51 18.9709 125.51 19.0848C125.51 19.1987 125.51 19.3079 125.533 19.41C125.542 19.5053 125.56 19.5998 125.589 19.6924C125.608 19.764 125.652 19.8292 125.715 19.8799C125.767 19.9262 125.825 19.9676 125.888 20.0034C125.984 20.0467 126.091 20.071 126.199 20.0746C126.215 20.1065 126.225 20.14 126.23 20.1743C126.245 20.2529 126.245 20.333 126.23 20.4116C126.225 20.4466 126.214 20.4809 126.199 20.5137H125.919C125.734 20.5137 125.527 20.5137 125.303 20.5137C125.079 20.5137 124.897 20.5137 124.76 20.5137C124.623 20.5137 124.429 20.5137 124.225 20.5137C124.02 20.5137 123.833 20.5137 123.665 20.5137H123.25C123.235 20.4809 123.225 20.4466 123.22 20.4116C123.205 20.333 123.205 20.2529 123.22 20.1743C123.224 20.14 123.235 20.1065 123.25 20.0746C123.471 20.07 123.682 20.0013 123.85 19.8799C123.906 19.826 123.947 19.7619 123.97 19.6924C124.002 19.6003 124.022 19.5056 124.032 19.41C124.032 19.3079 124.048 19.1987 124.051 19.0848C124.054 18.9709 124.051 18.8474 124.051 18.7477L124.074 16.0608C124.074 15.8377 124.074 15.6289 124.074 15.4366C124.072 15.2845 124.004 15.1382 123.883 15.026C123.818 14.9747 123.742 14.9337 123.659 14.9049C123.546 14.8652 123.426 14.8412 123.304 14.8337C123.288 14.8007 123.277 14.7665 123.27 14.7316C123.267 14.6921 123.267 14.6525 123.27 14.613C123.267 14.5379 123.284 14.4632 123.32 14.3946H123.88L124.637 14.378L125.513 14.359L126.353 14.3424H126.958C127.255 14.3405 127.551 14.3676 127.84 14.4231C128.102 14.4696 128.35 14.5591 128.571 14.6865C128.782 14.8073 128.954 14.9704 129.072 15.1613C129.205 15.3872 129.27 15.6376 129.26 15.8899C129.263 16.0914 129.219 16.2914 129.131 16.4786C129.046 16.6579 128.925 16.8233 128.773 16.9676C128.618 17.1124 128.436 17.2351 128.235 17.3307C128.027 17.4342 127.804 17.514 127.571 17.5681C127.851 17.9716 128.112 18.3395 128.347 18.667L128.655 19.0824C128.753 19.2201 128.846 19.3483 128.935 19.4646C129.025 19.5809 129.098 19.6829 129.165 19.7636C129.206 19.8218 129.256 19.8752 129.313 19.9227C129.375 19.98 129.451 20.026 129.534 20.0578C129.618 20.0896 129.709 20.1067 129.801 20.1078H129.957C129.972 20.1401 129.982 20.1735 129.988 20.2075C129.983 20.2434 129.976 20.2791 129.966 20.3143Z" fill="white"/>
<path d="M133.52 14.6227C133.523 14.6622 133.523 14.7018 133.52 14.7413C133.513 14.7761 133.503 14.8103 133.489 14.8434C133.268 14.8482 133.056 14.916 132.887 15.0357C132.77 15.1535 132.711 15.3046 132.721 15.4582C132.721 15.6504 132.721 15.8593 132.721 16.0824L132.691 18.7693C132.691 18.8809 132.691 18.9924 132.691 19.1064C132.691 19.2203 132.691 19.3295 132.71 19.4315C132.72 19.527 132.74 19.6215 132.769 19.714C132.788 19.7853 132.83 19.8505 132.892 19.9015C132.959 19.9546 133.037 19.9965 133.122 20.0249C133.237 20.0646 133.359 20.0886 133.483 20.0961C133.499 20.128 133.509 20.1616 133.514 20.1958C133.529 20.2744 133.529 20.3546 133.514 20.4332C133.509 20.4682 133.498 20.5024 133.483 20.5353H133.111C132.923 20.5353 132.719 20.5353 132.495 20.5353C132.271 20.5353 132.089 20.5353 131.951 20.5353C131.814 20.5353 131.621 20.5353 131.416 20.5353C131.212 20.5353 131.024 20.5353 130.856 20.5353H130.442C130.428 20.5021 130.418 20.4679 130.411 20.4332C130.396 20.3546 130.396 20.2744 130.411 20.1958C130.417 20.1618 130.428 20.1284 130.442 20.0961C130.663 20.0916 130.875 20.0229 131.044 19.9015C131.1 19.8472 131.141 19.7832 131.164 19.714C131.195 19.6216 131.215 19.5271 131.226 19.4315C131.226 19.3295 131.243 19.2203 131.246 19.1064C131.248 18.9924 131.246 18.869 131.246 18.7693L131.276 16.0824C131.276 15.8593 131.276 15.6504 131.276 15.4582C131.287 15.3046 131.228 15.1535 131.111 15.0357C131.045 14.9839 130.968 14.9428 130.884 14.9146C130.768 14.8752 130.645 14.8512 130.52 14.8434C130.506 14.8103 130.496 14.7761 130.489 14.7413C130.486 14.7018 130.486 14.6622 130.489 14.6227C130.487 14.5831 130.487 14.5435 130.489 14.504C130.496 14.47 130.506 14.4366 130.52 14.4043H130.893C131.08 14.4043 131.282 14.4043 131.495 14.4043H132.024H132.542C132.735 14.4043 132.917 14.4043 133.102 14.4043H133.517C133.531 14.4366 133.541 14.47 133.548 14.504C133.541 14.544 133.532 14.5836 133.52 14.6227Z" fill="white"/>
<path d="M139 18.8567C139.017 19.1603 138.919 19.4606 138.72 19.7135C138.521 19.9432 138.266 20.1335 137.972 20.2713C137.667 20.4127 137.339 20.5143 136.998 20.5728C136.677 20.632 136.349 20.663 136.02 20.6654C135.88 20.6654 135.74 20.6654 135.564 20.6535L135.088 20.6226L134.687 20.587L134.455 20.5609L134.404 19.2507C134.444 19.2381 134.486 19.2293 134.528 19.2246C134.576 19.2222 134.625 19.2222 134.673 19.2246C134.757 19.2211 134.841 19.2324 134.92 19.2578C135.073 19.7452 135.505 19.9881 136.216 19.9865C136.374 19.9853 136.531 19.975 136.687 19.9557C136.833 19.9426 136.977 19.918 137.118 19.8821C137.242 19.7548 137.337 19.6091 137.398 19.4525C137.463 19.3 137.498 19.1397 137.502 18.9777C137.515 18.767 137.435 18.5595 137.278 18.3962C137.12 18.249 136.929 18.1289 136.718 18.0425C136.481 17.9409 136.238 17.8498 135.99 17.7696C135.732 17.6861 135.486 17.5769 135.259 17.4444C134.998 17.2968 134.789 17.0935 134.651 16.8551C134.513 16.6166 134.452 16.3515 134.474 16.0867C134.459 15.7766 134.557 15.47 134.755 15.2085C134.942 14.9783 135.188 14.7869 135.474 14.6483C135.767 14.5057 136.086 14.4062 136.418 14.354C136.731 14.2992 137.05 14.2706 137.37 14.2686C137.51 14.2686 137.65 14.2686 137.827 14.2828L138.297 14.3137L138.692 14.3493C138.807 14.3611 138.882 14.3682 138.924 14.3754L138.955 15.6476C138.916 15.661 138.874 15.6698 138.832 15.6737C138.784 15.6773 138.735 15.6773 138.686 15.6737C138.601 15.6775 138.516 15.6654 138.437 15.6381C138.358 15.4264 138.193 15.2449 137.972 15.1254C137.729 14.9996 137.448 14.9369 137.163 14.945C137.012 14.9461 136.861 14.9564 136.712 14.9759C136.574 14.9913 136.437 15.0159 136.303 15.0495C136.202 15.1706 136.124 15.3043 136.071 15.4459C136.014 15.5874 135.985 15.7356 135.984 15.885C135.969 16.0897 136.048 16.2913 136.205 16.4475C136.366 16.589 136.556 16.7048 136.765 16.7893C136.989 16.8842 137.233 16.9744 137.496 17.0623C137.754 17.1526 137.998 17.2698 138.221 17.4112C138.453 17.5561 138.644 17.7425 138.782 17.9571C138.943 18.2365 139.018 18.546 139 18.8567Z" fill="white"/>
<path d="M78.2305 28.779C78.2344 28.8026 78.2344 28.8265 78.2305 28.8502C78.1045 28.8763 77.9784 28.8953 77.8552 28.9119C77.7308 28.9262 77.6055 28.9333 77.48 28.9332C77.3028 28.9338 77.1305 28.8845 76.9899 28.7932C76.8461 28.7004 76.7121 28.5972 76.5894 28.4846C76.3922 28.6316 76.1642 28.7459 75.9173 28.8217C75.6745 28.8947 75.4189 28.9324 75.1612 28.9332C74.9111 28.936 74.662 28.9072 74.4219 28.8478C74.2165 28.7957 74.0259 28.7084 73.8618 28.5914C73.7062 28.4758 73.5829 28.3323 73.5005 28.1713C73.4117 27.9885 73.3679 27.7922 73.3717 27.5945C73.3704 27.4587 73.4068 27.3245 73.4781 27.2029C73.5527 27.0794 73.6469 26.9652 73.7582 26.8635C73.8781 26.7527 74.0093 26.651 74.1502 26.5597C74.2987 26.4623 74.4443 26.3698 74.5899 26.2796C74.4551 26.0939 74.3381 25.8995 74.2399 25.6981C74.16 25.5484 74.1144 25.3874 74.1054 25.2233C74.1048 25.0914 74.1464 24.9618 74.2259 24.8483C74.3074 24.7347 74.4161 24.6368 74.5451 24.5611C74.6786 24.48 74.8259 24.4168 74.982 24.3736C75.1383 24.3298 75.3018 24.3074 75.4665 24.3071C75.6001 24.3069 75.7334 24.3188 75.8641 24.3427C75.986 24.3643 76.102 24.4054 76.2058 24.4638C76.3067 24.5253 76.3884 24.6068 76.4438 24.7011C76.5069 24.8103 76.5377 24.9309 76.5334 25.0524C76.5341 25.1738 76.4974 25.2933 76.427 25.399C76.3528 25.5113 76.2583 25.613 76.147 25.7004C76.0211 25.7999 75.8873 25.8919 75.7465 25.9758L75.2956 26.2463C75.388 26.365 75.4917 26.4837 75.6093 26.6309C75.7269 26.778 75.8529 26.9038 75.9817 27.0439C76.1106 27.1839 76.2366 27.3192 76.3654 27.4545L76.7322 27.8295C76.8267 27.6658 76.8999 27.4939 76.9507 27.3168C77.0014 27.1621 77.0296 27.0027 77.0347 26.8421C77.0441 26.7817 77.0282 26.7204 76.9899 26.6688C76.9366 26.6228 76.8714 26.5878 76.7995 26.5668C76.7369 26.5462 76.6705 26.5349 76.6034 26.5336C76.5938 26.5191 76.589 26.5027 76.5894 26.4861V26.4196C76.5903 26.3877 76.595 26.3558 76.6034 26.3247H76.8695C76.8955 26.3271 76.9218 26.3271 76.9479 26.3247H77.0263C77.0767 26.3272 77.1271 26.3272 77.1775 26.3247H77.3455C77.4604 26.3247 77.5752 26.3247 77.6844 26.3247H77.9952H78.2081C78.2267 26.3894 78.2267 26.457 78.2081 26.5217H78.1017C78.0506 26.5297 78.0002 26.54 77.9504 26.5525C77.8957 26.5644 77.8423 26.5803 77.7908 26.6C77.7462 26.6156 77.7053 26.6382 77.6704 26.6665C77.6195 26.7221 77.5849 26.7872 77.5696 26.8564L77.4464 27.2029C77.3988 27.3358 77.3399 27.483 77.2699 27.6373C77.2 27.7935 77.1109 27.9431 77.0039 28.0835L77.2083 28.2758C77.2835 28.3435 77.3629 28.4077 77.4464 28.468C77.5247 28.5248 77.6102 28.5741 77.7012 28.6152C77.7747 28.6506 77.8575 28.6702 77.942 28.6721H78.0513C78.0986 28.6722 78.1458 28.6666 78.1913 28.6555C78.2096 28.6718 78.2213 28.6926 78.2249 28.7149C78.2302 28.7359 78.2321 28.7575 78.2305 28.779ZM76.3318 28.2544C76.2198 28.1476 76.0993 28.017 75.9649 27.8889C75.8305 27.7607 75.6849 27.6088 75.5561 27.4592C75.4272 27.3097 75.276 27.1578 75.1472 27.0011C75.0184 26.8445 74.8952 26.6973 74.7887 26.5549C74.5905 26.6641 74.4178 26.8033 74.2791 26.9655C74.1427 27.1421 74.0751 27.3505 74.0858 27.5613C74.086 27.6868 74.1155 27.8111 74.1726 27.9268C74.2295 28.0461 74.3143 28.1543 74.4219 28.2449C74.5363 28.3403 74.6713 28.416 74.8196 28.468C74.9867 28.5287 75.1671 28.5586 75.3488 28.5558C75.5345 28.5571 75.7187 28.529 75.8921 28.4728C76.0516 28.4206 76.2001 28.3468 76.3318 28.2544ZM75.9761 25.0809C75.9792 25.0171 75.9663 24.9534 75.9383 24.8941C75.9103 24.8348 75.8679 24.7812 75.8137 24.7368C75.7566 24.6911 75.6892 24.6556 75.6156 24.6324C75.542 24.6091 75.4637 24.5986 75.3852 24.6015C75.3311 24.5988 75.2769 24.5988 75.2228 24.6015L75.0604 24.6228C74.9501 24.6705 74.8585 24.7444 74.7969 24.8354C74.7352 24.9265 74.7061 25.0307 74.7131 25.1355C74.7208 25.2612 74.757 25.3845 74.8196 25.4987C74.8996 25.6623 74.9932 25.8209 75.0996 25.9734C75.3192 25.8427 75.5261 25.6975 75.7185 25.539C75.7966 25.4819 75.86 25.4117 75.9048 25.3329C75.9496 25.2541 75.9749 25.1683 75.9789 25.0809H75.9761Z" fill="white"/>
<path d="M84.7499 25.4269C84.7588 25.658 84.6749 25.8848 84.5119 26.0702C84.3493 26.2466 84.144 26.3915 83.9098 26.495C83.6579 26.6068 83.388 26.6868 83.1088 26.7324C82.8321 26.7796 82.5509 26.8058 82.2687 26.8107V27.6889C82.2687 27.81 82.2687 27.9263 82.2687 28.0355C82.2687 28.1447 82.2687 28.2444 82.2883 28.3298C82.2883 28.3835 82.3037 28.4365 82.3331 28.4841C82.3889 28.5272 82.4561 28.5581 82.5292 28.5743C82.615 28.5964 82.7186 28.6178 82.84 28.6384C82.8494 28.6695 82.855 28.7013 82.8568 28.7333C82.858 28.7483 82.858 28.7634 82.8568 28.7784C82.8568 28.795 82.8568 28.8164 82.8568 28.8378H82.6468H82.3079H81.9411H81.5798H81.2465H81.0337C81.0337 28.8164 81.0337 28.795 81.0337 28.7784C81.0324 28.7634 81.0324 28.7483 81.0337 28.7333C81.0311 28.7017 81.0311 28.67 81.0337 28.6384C81.1453 28.6207 81.2556 28.5977 81.3642 28.5695C81.4355 28.554 81.5016 28.5248 81.5574 28.4841C81.5806 28.4384 81.592 28.389 81.591 28.3393C81.591 28.2562 81.605 28.1589 81.6134 28.045C81.6218 27.931 81.6134 27.8076 81.6274 27.6937C81.6414 27.5798 81.6274 27.4563 81.6274 27.3756V25.5622V25.2916C81.6274 25.2038 81.6274 25.1207 81.6274 25.0543C81.6263 24.9891 81.6197 24.924 81.6078 24.8596C81.6059 24.824 81.5923 24.7894 81.5686 24.7599C81.5139 24.7187 81.4487 24.6887 81.3782 24.6721C81.2886 24.6508 81.1793 24.627 81.0477 24.6057C81.0404 24.5743 81.0357 24.5426 81.0337 24.5107C81.0324 24.4957 81.0324 24.4806 81.0337 24.4656C81.0337 24.449 81.0337 24.4276 81.0337 24.4063H81.4874L81.8766 24.3897L82.2995 24.3707L82.7168 24.3541H83.0836C83.2903 24.3529 83.4967 24.3688 83.6997 24.4015C83.887 24.4292 84.066 24.4881 84.2262 24.5748C84.379 24.6598 84.5034 24.7767 84.5875 24.9142C84.6895 25.0716 84.7452 25.2474 84.7499 25.4269ZM84.0246 25.5242C84.0373 25.3957 84.0138 25.2664 83.9558 25.1471C83.8979 25.0278 83.8072 24.9219 83.6913 24.8383C83.4475 24.6887 83.152 24.612 82.8512 24.6199H82.7028H82.532H82.3359C82.3359 24.6602 82.3359 24.7125 82.3359 24.7813C82.3359 24.8501 82.3359 24.9261 82.3359 25.0187C82.3359 25.1112 82.3359 25.1896 82.3359 25.2798C82.3359 25.3699 82.3359 25.4578 82.3359 25.5337L82.3219 26.4499H82.5488H82.7756C82.8904 26.4499 82.9996 26.4499 83.1004 26.4499C83.1847 26.4451 83.2682 26.4332 83.3497 26.4143C83.5573 26.3433 83.7356 26.2219 83.8622 26.0654C83.9774 25.9023 84.0338 25.7142 84.0246 25.5242Z" fill="white"/>
<path d="M90.0259 28.7335C90.0287 28.7517 90.0287 28.77 90.0259 28.7881C90.0259 28.8071 90.0203 28.8237 90.0091 28.838H89.7739H89.4938C89.3762 28.838 89.2502 28.838 89.1186 28.838H88.903H88.4773H88.3345H88.1216C88.1115 28.8039 88.1067 28.7687 88.1076 28.7335C88.1071 28.7015 88.1118 28.6695 88.1216 28.6386L88.2476 28.6196C88.3027 28.61 88.357 28.5973 88.4101 28.5816C88.4601 28.5654 88.508 28.5447 88.5529 28.5199C88.571 28.5108 88.5861 28.498 88.5969 28.4827C88.6077 28.4673 88.6137 28.4499 88.6145 28.4321C88.6015 28.3339 88.5742 28.2374 88.5333 28.1449C88.4801 28.0049 88.4017 27.7912 88.2953 27.5111L88.0908 26.9795H86.3069L86.1333 27.3687C86.0885 27.4684 86.0437 27.5705 86.0017 27.6797C85.9597 27.7889 85.9177 27.8933 85.8841 27.993C85.8505 28.0927 85.8197 28.1852 85.8001 28.2636C85.7843 28.3173 85.774 28.3721 85.7693 28.4274C85.7708 28.4454 85.7771 28.4629 85.7878 28.4785C85.7984 28.4941 85.8132 28.5075 85.8309 28.5175C85.8753 28.5436 85.9233 28.5652 85.9737 28.5816C86.0268 28.5973 86.0811 28.61 86.1361 28.6196L86.2621 28.6386C86.2706 28.6698 86.2753 28.7016 86.2761 28.7335C86.2756 28.7687 86.2709 28.8037 86.2621 28.838H86.0717H85.9401H85.548H85.3632C85.2316 28.838 85.1196 28.838 85.0299 28.838H84.7947H84.6127C84.6024 28.8246 84.5975 28.8088 84.5987 28.7929V28.7335C84.5996 28.7016 84.6043 28.6698 84.6127 28.6386L84.8199 28.6006C84.9135 28.5826 84.999 28.5423 85.0664 28.4843C85.1242 28.424 85.1714 28.3568 85.2064 28.2849C85.2652 28.1829 85.324 28.0713 85.3884 27.9526C85.4528 27.834 85.5088 27.7153 85.562 27.6061C85.6152 27.4969 85.6516 27.4162 85.6713 27.3687L87.0323 24.3377L87.6232 24.2617L89.0374 27.5159C89.0579 27.5681 89.0887 27.6472 89.1298 27.7533C89.1746 27.8529 89.2222 27.9574 89.2754 28.0618C89.3286 28.1663 89.3818 28.2636 89.4378 28.3538C89.4788 28.4228 89.5296 28.4874 89.5891 28.546C89.6447 28.5911 89.7168 28.6187 89.7935 28.6244L90.0035 28.6481C90.0186 28.6748 90.0262 28.704 90.0259 28.7335ZM87.4327 25.3441C87.4005 25.2663 87.3734 25.187 87.3515 25.1067C87.3291 25.0331 87.3123 24.9667 87.2983 24.9073C87.2751 24.8473 87.26 24.7852 87.2535 24.7222C87.2412 24.7493 87.2309 24.7771 87.2227 24.8053C87.2227 24.8361 87.2031 24.867 87.1919 24.9002C87.1807 24.9334 87.1471 25.0284 87.1191 25.1067C87.0911 25.185 87.0575 25.2657 87.0183 25.3441L86.4358 26.6828H87.9788L87.4327 25.3441Z" fill="white"/>
<path d="M95.0163 28.741C95.0155 28.7743 95.0079 28.8073 94.9939 28.8384H94.8763H94.7083H94.5374H94.4114C94.2842 28.841 94.1572 28.8299 94.0333 28.8051C93.9384 28.7818 93.8524 28.7376 93.7841 28.677C93.7063 28.6079 93.6333 28.535 93.5657 28.4586C93.4705 28.3565 93.364 28.2378 93.2436 28.1002C93.1232 27.9625 93 27.8201 92.8712 27.6682C92.7423 27.5163 92.6163 27.3715 92.5043 27.2314C92.3923 27.0914 92.2887 26.968 92.2019 26.8564C92.1151 26.7449 92.0506 26.6642 92.0142 26.6191C92.0179 26.58 92.0283 26.5416 92.045 26.5051C92.0638 26.4763 92.0874 26.4499 92.115 26.4268C92.2899 26.4059 92.4617 26.3693 92.6275 26.3176C92.7782 26.2713 92.9191 26.2048 93.0448 26.1206C93.1612 26.0438 93.2567 25.9467 93.3248 25.8358C93.3878 25.7215 93.4185 25.5963 93.4145 25.4703C93.4194 25.3324 93.3878 25.1953 93.322 25.0691C93.2672 24.9659 93.1824 24.8761 93.0756 24.808C92.9695 24.7388 92.8474 24.6895 92.7171 24.6632C92.5764 24.6322 92.4313 24.617 92.2859 24.6181H92.1347H91.9694H91.8098H91.6894L91.6754 24.9006C91.6754 24.986 91.6754 25.0857 91.6754 25.1997C91.6754 25.3136 91.6754 25.437 91.6754 25.5557L91.6614 27.3501C91.6614 27.3786 91.6614 27.4498 91.6614 27.5614C91.6614 27.6729 91.6614 27.7987 91.6614 27.9174C91.6614 28.0361 91.6614 28.1548 91.6754 28.2616C91.6717 28.3245 91.6861 28.3872 91.7174 28.4443C91.8729 28.5385 92.0561 28.5943 92.2467 28.6057C92.2493 28.6374 92.2493 28.6691 92.2467 28.7007C92.248 28.7157 92.248 28.7308 92.2467 28.7458C92.2467 28.7624 92.2467 28.7838 92.2467 28.8051H92.0142H91.6754H91.3029H90.9417H90.6084H90.3956C90.3956 28.7838 90.3956 28.7624 90.3956 28.7458C90.3943 28.7308 90.3943 28.7157 90.3956 28.7007C90.3976 28.6688 90.4023 28.6371 90.4096 28.6057C90.5946 28.5948 90.7727 28.5415 90.9249 28.4515C90.9573 28.3946 90.9727 28.3318 90.9697 28.2687C90.9697 28.1643 90.9865 28.048 90.9921 27.9222C90.9977 27.7964 90.9921 27.6848 90.9921 27.5661V27.3501L91.0145 25.5557V25.3729C91.0145 25.2843 91.0145 25.1941 91.0145 25.1023C91.0145 25.0121 91.0145 24.9267 90.9977 24.8507C90.9809 24.7748 90.9781 24.7273 90.9613 24.7155C90.9065 24.6742 90.8414 24.6442 90.7708 24.6276C90.6812 24.6063 90.572 24.5825 90.4404 24.5612C90.4331 24.5298 90.4284 24.4981 90.4264 24.4662C90.4251 24.4512 90.4251 24.4361 90.4264 24.4211C90.4264 24.4045 90.4264 24.3832 90.4264 24.3618H90.5356C90.5878 24.364 90.6402 24.364 90.6924 24.3618H90.7848H90.8885L91.2889 24.3452L91.7286 24.3262L92.1431 24.3096H92.4847C92.6722 24.3102 92.8593 24.3221 93.0448 24.3452C93.2327 24.3657 93.4143 24.4164 93.5797 24.4947C93.7433 24.5731 93.8802 24.6859 93.9773 24.8223C94.0884 24.9943 94.1416 25.1889 94.1314 25.3848C94.143 25.5314 94.1176 25.6784 94.0567 25.8159C93.9959 25.9535 93.901 26.0784 93.7785 26.1823C93.4991 26.4011 93.1472 26.5419 92.7704 26.5858C92.8124 26.6428 92.874 26.7235 92.9608 26.8232C93.0476 26.9229 93.1428 27.0416 93.2408 27.1674L93.5797 27.5637L93.9213 27.9483L94.2014 28.2616C94.2637 28.327 94.331 28.3889 94.403 28.4467C94.4746 28.5015 94.5524 28.55 94.6354 28.5915C94.7027 28.625 94.7787 28.6437 94.8567 28.6461H94.9687C94.9768 28.6604 94.9825 28.6756 94.9855 28.6912C94.9968 28.7074 95.007 28.724 95.0163 28.741Z" fill="white"/>
<path d="M99.0629 25.14C99.0247 25.1423 98.9863 25.1423 98.9481 25.14H98.8949H98.8277C98.7808 24.9969 98.6756 24.8724 98.5309 24.7887C98.3687 24.7256 98.191 24.6963 98.0128 24.7032H97.6571C97.5199 24.7032 97.4107 24.7032 97.3239 24.7032C97.321 24.738 97.321 24.7729 97.3239 24.8077V24.9264C97.3239 24.9999 97.3239 25.0901 97.3239 25.1993C97.3239 25.3085 97.3239 25.4367 97.3239 25.5672V27.3617V27.7557C97.3239 27.8854 97.3239 28.0017 97.3239 28.1046C97.3239 28.209 97.3239 28.2945 97.3435 28.3609C97.3415 28.4008 97.3501 28.4406 97.3687 28.4772C97.4237 28.5189 97.4901 28.5483 97.5619 28.5627C97.6695 28.5909 97.7789 28.6139 97.8896 28.6315C97.8989 28.6626 97.9046 28.6944 97.9064 28.7265C97.9076 28.7415 97.9076 28.7565 97.9064 28.7716C97.9064 28.7882 97.9064 28.8095 97.9064 28.8309H97.6963H97.3603H96.9934H96.6294H96.2961H96.0861C96.0838 28.8112 96.0838 28.7913 96.0861 28.7716C96.0848 28.7565 96.0848 28.7415 96.0861 28.7265C96.0879 28.6944 96.0935 28.6626 96.1029 28.6315C96.2136 28.6139 96.323 28.5909 96.4305 28.5627C96.5021 28.5478 96.5684 28.5184 96.6238 28.4772C96.642 28.4453 96.6524 28.4106 96.6546 28.3752C96.6546 28.3158 96.6714 28.2351 96.6798 28.1378C96.6882 28.0405 96.6938 27.9242 96.6966 27.7913C96.6994 27.6584 96.6966 27.5159 96.6966 27.3617L96.7106 25.5815V24.8124C96.7106 24.7721 96.7106 24.7365 96.7106 24.7032H96.5733H96.3969H95.9629C95.7845 24.6956 95.6067 24.7249 95.4448 24.7887C95.2991 24.8721 95.193 24.9966 95.1451 25.14C95.1078 25.1422 95.0704 25.1422 95.0331 25.14H94.9799H94.9127L94.9351 24.3828H95.1339H95.414C95.512 24.3828 95.61 24.3828 95.694 24.3828H95.9292H98.0156H98.2508C98.3404 24.3828 98.4328 24.3828 98.5309 24.3828H98.8109H99.0377L99.0629 25.14Z" fill="white"/>
<path d="M104.846 24.4995C104.845 24.5314 104.841 24.5633 104.832 24.5944C104.642 24.6046 104.459 24.6579 104.303 24.7487C104.278 24.7958 104.264 24.8466 104.263 24.8982C104.263 24.986 104.247 25.0881 104.238 25.1997C104.23 25.3112 104.238 25.437 104.238 25.5343C104.238 25.6317 104.238 25.7218 104.238 25.7717L104.224 27.3667C104.224 27.5258 104.224 27.6824 104.224 27.8415C104.224 28.0005 104.224 28.1405 104.21 28.2734C104.196 28.4064 104.21 28.5108 104.191 28.6105C104.171 28.7102 104.177 28.7624 104.171 28.7933C104.034 28.8583 103.882 28.8957 103.726 28.9024L100.976 25.7812C100.928 25.7299 100.884 25.676 100.844 25.6198C100.799 25.5604 100.76 25.5059 100.718 25.4608C100.694 25.4328 100.673 25.4034 100.654 25.3729L100.598 25.2875V25.5248C100.598 25.5889 100.598 25.6578 100.598 25.7337C100.598 25.8097 100.598 25.8738 100.598 25.9284L100.581 27.3525V27.5899C100.581 27.7062 100.581 27.8272 100.581 27.9578C100.581 28.0883 100.581 28.1951 100.598 28.3067C100.595 28.37 100.611 28.4329 100.645 28.4894C100.799 28.5796 100.979 28.6329 101.166 28.6437C101.169 28.6753 101.169 28.7071 101.166 28.7387C101.167 28.7537 101.167 28.7688 101.166 28.7838C101.166 28.8004 101.166 28.8217 101.166 28.8431H100.813H100.712H100.528H100.343C100.225 28.8431 100.122 28.8431 100.032 28.8431C99.9423 28.8431 99.8471 28.8431 99.7519 28.8431H99.5166C99.5166 28.8217 99.5166 28.8004 99.5166 28.7838C99.5153 28.7688 99.5153 28.7537 99.5166 28.7387C99.514 28.7071 99.514 28.6753 99.5166 28.6437C99.7062 28.6335 99.889 28.5802 100.046 28.4894C100.074 28.4323 100.087 28.3708 100.085 28.3091C100.085 28.2022 100.102 28.0859 100.108 27.9554C100.113 27.8248 100.108 27.699 100.108 27.5804C100.108 27.4617 100.108 27.3834 100.108 27.343L100.124 25.831V25.4085C100.128 25.2649 100.118 25.1213 100.096 24.9789C100.09 24.9042 100.057 24.8328 100.003 24.7736C99.9487 24.7145 99.875 24.6703 99.7911 24.6466C99.7155 24.6209 99.6365 24.6034 99.5558 24.5944C99.5499 24.5798 99.5499 24.5639 99.5558 24.5493V24.4923C99.5521 24.46 99.5521 24.4274 99.5558 24.395H99.6931H99.9087H100.13H100.264H100.57L103.328 27.5804C103.39 27.6539 103.443 27.7204 103.493 27.7845L103.616 27.953L103.723 28.1049C103.723 28.0551 103.723 28.0029 103.723 27.953V27.7987C103.723 27.7133 103.723 27.6231 103.723 27.5281C103.723 27.4332 103.723 27.3525 103.723 27.2908L103.745 25.7717C103.745 25.7171 103.745 25.634 103.745 25.5343C103.745 25.4346 103.745 25.316 103.745 25.2044C103.745 25.0929 103.745 24.9955 103.726 24.9077C103.727 24.8586 103.718 24.8097 103.7 24.7629C103.546 24.6723 103.365 24.619 103.177 24.6086C103.169 24.5773 103.165 24.5456 103.163 24.5137C103.161 24.4987 103.161 24.4836 103.163 24.4686C103.163 24.452 103.163 24.4306 103.163 24.4093H103.415C103.448 24.4116 103.482 24.4116 103.516 24.4093H103.616C103.672 24.4093 103.734 24.4093 103.804 24.4093H103.989C104.104 24.4093 104.207 24.4093 104.297 24.4093C104.387 24.4093 104.482 24.4093 104.577 24.4093H104.812C104.812 24.4306 104.812 24.452 104.812 24.4686C104.824 24.4782 104.836 24.4885 104.846 24.4995Z" fill="white"/>
<path d="M109.156 28.8379H108.635H108.03H106.35H105.988H105.692H105.51C105.51 28.8165 105.51 28.7952 105.51 28.7785C105.508 28.7635 105.508 28.7485 105.51 28.7334C105.51 28.7015 105.515 28.6696 105.524 28.6385C105.634 28.6212 105.744 28.5982 105.851 28.5697C105.923 28.5553 105.989 28.5259 106.044 28.4842C106.076 28.4329 106.092 28.3759 106.092 28.3181C106.092 28.2231 106.109 28.1187 106.114 28C106.12 27.8813 106.114 27.7627 106.114 27.6511V27.3829L106.131 25.5813V25.344C106.131 25.2538 106.131 25.166 106.131 25.0805C106.131 24.9951 106.131 24.9191 106.114 24.8432C106.113 24.8014 106.1 24.7607 106.075 24.7245C106.02 24.6836 105.954 24.6551 105.882 24.6414C105.794 24.6192 105.685 24.5979 105.554 24.5773C105.545 24.5462 105.539 24.5144 105.538 24.4824C105.536 24.4674 105.536 24.4523 105.538 24.4373C105.538 24.4207 105.538 24.3993 105.538 24.3779H105.689H105.798H106.196H106.414H108.304H108.598C108.699 24.3779 108.797 24.3779 108.895 24.3779C108.993 24.3779 109.069 24.3779 109.128 24.3779L109.15 25.1398C109.114 25.1489 109.076 25.1537 109.038 25.1541C108.998 25.1529 108.957 25.1482 108.918 25.1398C108.881 25.0498 108.833 24.9637 108.772 24.8835C108.725 24.8216 108.658 24.7723 108.579 24.7411C108.491 24.7063 108.396 24.6854 108.299 24.6794C108.181 24.6794 108.038 24.6794 107.868 24.6794C107.509 24.6794 107.153 24.6794 106.801 24.6984V24.8313C106.801 24.8788 106.801 24.9262 106.801 24.9737C106.801 25.0591 106.801 25.1565 106.801 25.2656C106.801 25.3748 106.801 25.484 106.801 25.5956V26.4026H107.137H107.503C107.646 26.4026 107.77 26.4026 107.882 26.3884C107.979 26.3825 108.073 26.3616 108.162 26.3266C108.241 26.2955 108.309 26.2462 108.358 26.1842C108.415 26.1036 108.453 26.014 108.47 25.9208C108.507 25.9124 108.546 25.9084 108.584 25.9089C108.625 25.9081 108.666 25.9121 108.705 25.9208V26.0822C108.705 26.1273 108.705 26.1913 108.705 26.2697C108.705 26.348 108.705 26.4406 108.705 26.5426C108.705 26.6447 108.705 26.7349 108.705 26.8108C108.705 26.8868 108.705 26.9509 108.705 26.9984V27.1574C108.666 27.1668 108.625 27.1716 108.584 27.1716C108.546 27.1712 108.507 27.1664 108.47 27.1574C108.453 27.0642 108.415 26.9746 108.358 26.8939C108.309 26.832 108.241 26.7827 108.162 26.7515C108.073 26.7174 107.978 26.6965 107.882 26.6898C107.77 26.6898 107.646 26.6898 107.503 26.6898H107.137C107.013 26.6898 106.89 26.6898 106.77 26.6898V27.3829V27.9881C106.77 28.0973 106.77 28.1946 106.77 28.2801C106.768 28.3275 106.776 28.3748 106.792 28.4201C106.836 28.4518 106.887 28.4738 106.943 28.4842C107.024 28.5029 107.107 28.5156 107.19 28.5222C107.282 28.5222 107.383 28.5388 107.489 28.5412C107.596 28.5436 107.7 28.5412 107.806 28.5412C107.957 28.5417 108.107 28.5354 108.257 28.5222C108.373 28.5121 108.488 28.4873 108.596 28.4486C108.692 28.4141 108.778 28.3604 108.845 28.292C108.923 28.2097 108.984 28.1165 109.024 28.0166C109.062 28.0019 109.103 27.9954 109.145 27.9976C109.184 27.9948 109.224 28.0013 109.259 28.0166L109.156 28.8379Z" fill="white"/>
<path d="M114.698 28.7407C114.697 28.774 114.689 28.8069 114.675 28.838H114.558H114.39H114.219H114.093C113.966 28.8407 113.839 28.8295 113.715 28.8048C113.62 28.7815 113.534 28.7372 113.466 28.6766C113.388 28.6076 113.315 28.5346 113.247 28.4582C113.152 28.3562 113.046 28.2375 112.925 28.0998L112.553 27.6678C112.421 27.5159 112.298 27.3711 112.186 27.2311C112.074 27.0911 111.97 26.9676 111.883 26.8561C111.797 26.7445 111.732 26.6638 111.699 26.6187C111.696 26.5825 111.704 26.5463 111.721 26.5129C111.738 26.4796 111.764 26.45 111.797 26.4265C111.971 26.4055 112.143 26.3689 112.309 26.3173C112.46 26.271 112.601 26.2045 112.726 26.1203C112.843 26.0435 112.938 25.9463 113.006 25.8354C113.078 25.719 113.113 25.5892 113.11 25.458C113.115 25.3202 113.083 25.1831 113.018 25.0569C112.964 24.9538 112.88 24.864 112.774 24.7958C112.666 24.727 112.544 24.6778 112.413 24.651C112.272 24.62 112.127 24.6048 111.981 24.6059H111.83H111.665H111.505H111.385V24.8884C111.385 24.9738 111.385 25.0735 111.385 25.1875C111.385 25.3014 111.385 25.4248 111.385 25.5435L111.371 27.3379C111.371 27.3664 111.371 27.4376 111.371 27.5492C111.371 27.6607 111.371 27.7865 111.371 27.9052C111.371 28.0239 111.371 28.1426 111.371 28.2494C111.367 28.3123 111.382 28.375 111.413 28.4321C111.568 28.5263 111.752 28.5821 111.942 28.5935C111.949 28.6249 111.954 28.6566 111.956 28.6885C111.957 28.7035 111.957 28.7186 111.956 28.7336C111.956 28.7502 111.956 28.7716 111.956 28.7929H111.743H111.404H111.032H110.671H110.338H110.125C110.125 28.7716 110.125 28.7502 110.125 28.7336C110.125 28.717 110.125 28.7027 110.125 28.6885C110.122 28.6569 110.122 28.6252 110.125 28.5935C110.31 28.5826 110.488 28.5293 110.64 28.4393C110.672 28.3824 110.688 28.3196 110.685 28.2565C110.685 28.1521 110.704 28.0358 110.707 27.91C110.71 27.7842 110.707 27.6726 110.707 27.5539V27.3379L110.73 25.5435V25.3607C110.73 25.2721 110.73 25.1819 110.73 25.0901C110.73 24.9999 110.73 24.9145 110.713 24.8385C110.714 24.7919 110.702 24.7456 110.679 24.7032C110.623 24.6626 110.557 24.6326 110.486 24.6154C110.396 24.5941 110.287 24.5703 110.155 24.549C110.148 24.5176 110.143 24.4859 110.141 24.454C110.14 24.439 110.14 24.4239 110.141 24.4089C110.141 24.3923 110.141 24.3709 110.141 24.3496H110.217C110.269 24.3519 110.322 24.3519 110.374 24.3496H110.466H110.57L110.97 24.333L111.41 24.314L111.825 24.2974H112.166C112.354 24.2982 112.541 24.3101 112.726 24.333C112.913 24.3539 113.094 24.4046 113.258 24.4825C113.422 24.5609 113.559 24.6737 113.656 24.8101C113.768 24.9817 113.822 25.1766 113.81 25.3726C113.815 25.5155 113.784 25.6577 113.721 25.7901C113.657 25.9225 113.562 26.0422 113.44 26.1416C113.162 26.3599 112.811 26.5007 112.435 26.5451C112.474 26.6021 112.536 26.6828 112.623 26.7825C112.709 26.8822 112.805 27.0009 112.903 27.1267L113.242 27.5231L113.583 27.9076L113.877 28.2209C113.94 28.2863 114.007 28.3482 114.079 28.406C114.151 28.4608 114.23 28.5093 114.314 28.5508C114.38 28.5845 114.455 28.6033 114.533 28.6054H114.645C114.653 28.6197 114.658 28.6349 114.661 28.6505C114.677 28.6796 114.689 28.7098 114.698 28.7407Z" fill="white"/>
<path d="M118.011 27.6699C118.017 27.8718 117.951 28.0706 117.82 28.2395C117.698 28.3968 117.538 28.5302 117.35 28.6312C117.157 28.738 116.945 28.8182 116.723 28.8685C116.511 28.9159 116.294 28.9406 116.076 28.9421C115.938 28.9421 115.796 28.9421 115.622 28.9255C115.433 28.9118 115.245 28.8832 115.062 28.84L115.025 28.0781C115.039 28.0639 115.081 28.0568 115.146 28.0568C115.186 28.0546 115.226 28.062 115.261 28.0781C115.294 28.178 115.351 28.2715 115.426 28.3535C115.491 28.4223 115.572 28.4795 115.664 28.522C115.752 28.562 115.846 28.5916 115.944 28.6098C116.048 28.6258 116.154 28.6338 116.26 28.6335C116.377 28.6336 116.493 28.6241 116.608 28.6051C116.712 28.5896 116.814 28.5633 116.91 28.5267C117.028 28.4534 117.124 28.3574 117.19 28.2466C117.266 28.1187 117.304 27.9768 117.299 27.8336C117.307 27.6644 117.249 27.4977 117.134 27.3589C117.019 27.2267 116.878 27.1119 116.717 27.0195C116.545 26.9172 116.367 26.8236 116.182 26.7394C115.994 26.6544 115.814 26.5568 115.644 26.4475C115.481 26.3436 115.34 26.2167 115.227 26.0724C115.112 25.9143 115.055 25.7311 115.062 25.5455C115.056 25.3479 115.116 25.1528 115.235 24.983C115.35 24.8298 115.502 24.6988 115.681 24.5985C115.867 24.4975 116.071 24.4222 116.286 24.3753C116.498 24.327 116.718 24.3023 116.938 24.3018C117.073 24.3018 117.218 24.3018 117.372 24.3184C117.562 24.3321 117.749 24.3608 117.932 24.4038L117.946 25.142C117.909 25.1565 117.867 25.1631 117.826 25.161H117.761C117.743 25.161 117.726 25.156 117.711 25.1468C117.695 25.0584 117.656 24.9744 117.595 24.9015C117.534 24.8285 117.454 24.7686 117.361 24.7266C117.169 24.6492 116.958 24.611 116.745 24.6151C116.644 24.6151 116.543 24.6198 116.442 24.6293C116.345 24.6392 116.251 24.6625 116.162 24.6981C116.049 24.7658 115.953 24.8532 115.882 24.9545C115.809 25.0745 115.774 25.2087 115.782 25.3438C115.771 25.5134 115.829 25.6809 115.947 25.8185C116.065 25.9453 116.206 26.0557 116.364 26.146C116.536 26.2444 116.714 26.334 116.899 26.4142C117.089 26.4959 117.269 26.5928 117.437 26.7038C117.603 26.8131 117.745 26.9475 117.854 27.1002C117.964 27.2752 118.018 27.4716 118.011 27.6699Z" fill="white"/>
</svg>
